<svg width="34" height="34" fill="none" xmlns="http://www.w3.org/2000/svg"><path d="M23.857 0v34h9.524V0h-9.524zm2.857 33.014v-2.956h.477v2.956h-.477zm2.381 0h-.952v-2.956h.952v2.956zm1.429 0h-.476v-2.956h.476v2.956zm1.905 0h-.953v-3.942h-5.714v3.942h-.953V.986h7.62v32.029z" fill="#3E3E40"/><path d="M28.143 26.658h-2.381v.985h2.38v-.985zm3.333 0h-2.38v.985h2.38v-.985zm-3.333-1.971h-2.381v.985h2.38v-.985zm3.333 0h-2.38v.985h2.38v-.985zm-3.333-1.971h-2.381v.985h2.38v-.985zm3.333 0h-2.38v.985h2.38v-.985zm0-1.971h-5.714v.985h5.714v-.985zm0-1.971h-5.714v.985h5.714v-.985zm-3.333-1.971h-2.381v.985h2.38v-.985zm3.333 0h-2.38v.985h2.38v-.985zm-3.333-1.971h-2.381v.985h2.38v-.985zm3.333 0h-2.38v.985h2.38v-.985zm-3.333-1.972h-2.381v.986h2.38v-.985zm3.333 0h-2.38v.986h2.38v-.985zm0-1.97h-5.714v.985h5.714v-.985zm0-1.971h-5.714v.985h5.714V8.92zm-3.333-1.971h-2.381v.985h2.38v-.985zm3.333 0h-2.38v.985h2.38v-.985zm-3.333-1.971h-2.381v.985h2.38v-.985zm3.333 0h-2.38v.985h2.38v-.985zm-3.333-1.971h-2.381v.985h2.38v-.985zm3.333 0h-2.38v.985h2.38v-.985zm-19.047.936V34h9.523V3.942H12.43zm2.857 29.072v-2.956h1.428v2.956h-1.428zm2.38 0v-2.956h1.43v2.956h-1.43zm3.334 0h-.952v-3.942h-5.715v3.942h-.952V4.928H21v28.086z" fill="#3E3E40"/><path d="M16.714 26.658h-2.38v.985h2.38v-.985zm3.334 0h-2.381v.985h2.38v-.985zm-3.334-1.971h-2.38v.985h2.38v-.985zm3.334 0h-2.381v.985h2.38v-.985zm-3.334-1.971h-2.38v.985h2.38v-.985zm3.334 0h-2.381v.985h2.38v-.985zm-3.334-1.971h-2.38v.985h2.38v-.985zm3.334 0h-2.381v.985h2.38v-.985zm-3.334-1.971h-2.38v.985h2.38v-.985zm3.334 0h-2.381v.985h2.38v-.985zm-3.334-1.971h-2.38v.985h2.38v-.985zm3.334 0h-2.381v.985h2.38v-.985zm-3.334-1.971h-2.38v.985h2.38v-.985zm3.334 0h-2.381v.985h2.38v-.985zm0-1.972h-5.715v.986h5.715v-.985zm0-1.97h-5.715v.985h5.715v-.985zm0-1.971h-5.715v.985h5.715V8.92zm0-1.971h-5.715v.985h5.715v-.985zM1 7.884V34h9.524V7.884H1zm2.857 25.13v-2.956h.476v2.956h-.476zm1.429 0v-2.956h.952v2.956h-.952zm1.904 0v-2.956h.477v2.956H7.19zm2.381 0H8.62v-3.942H2.905v3.942h-.953V8.87h7.62v24.145z" fill="#3E3E40"/><path d="M8.62 26.658H2.904v.985h5.714v-.985zm0-1.971H2.904v.985h5.714v-.985zm-3.334-1.971H2.905v.985h2.38v-.985zm3.334 0H6.237v.985H8.62v-.985zm-3.334-1.971H2.905v.985h2.38v-.985zm3.334 0H6.237v.985H8.62v-.985zm-3.334-1.971H2.905v.985h2.38v-.985zm3.334 0H6.237v.985H8.62v-.985zm-3.334-1.971H2.905v.985h2.38v-.985zm3.334 0H6.237v.985H8.62v-.985zm-3.334-1.971H2.905v.985h2.38v-.985zm3.334 0H6.237v.985H8.62v-.985zm0-1.972H2.904v.986h5.714v-.985zm0-1.97H2.904v.985h5.714v-.985z" fill="#3E3E40"/></svg>