<svg width="34" height="35" fill="none" xmlns="http://www.w3.org/2000/svg"><path d="M3.46 12.254H6.7V9.015H3.46v3.24zm.926-2.313h1.388v1.388H4.386V9.94zm3.702 2.313h3.239V9.015h-3.24v3.24zm.925-2.313h1.389v1.388H9.013V9.94zm6.941-.926h-3.239v3.24h3.24v-3.24zm-.925 2.314H13.64V9.94h1.389v1.388zM3.46 16.881H6.7v-3.239H3.46v3.24zm.926-2.313h1.388v1.388H4.386v-1.388zm3.702 2.313h3.239v-3.239h-3.24v3.24zm.925-2.313h1.389v1.388H9.013v-1.388zm6.941-.925h-3.239v3.238h3.24v-3.239zm-.925 2.313H13.64v-1.388h1.389v1.388zM3.46 21.509H6.7v-3.24H3.46v3.24zm.926-2.314h1.388v1.388H4.386v-1.388zm3.702 2.314h3.239v-3.24h-3.24v3.24zm.925-2.314h1.389v1.388H9.013v-1.388zm6.941-.925h-3.239v3.239h3.24v-3.24zm-.925 2.313H13.64v-1.388h1.389v1.388zm10.179-3.702H21.97v4.165h3.24V16.88zm-.925 3.24h-1.388v-2.314h1.388v2.314zm5.553-3.24h-3.24v4.165h3.24V16.88zm-.926 3.24h-1.388v-2.314h1.388v2.314z" fill="#3E3E40"/><path d="M34 26.413a3.928 3.928 0 00-1.388-2.998v-7.922h.463V13.18h-1.851v-2.314H18.268V6.702h-1.389V5.314H6.238v1.388h-.925V3H2.535v3.702H1.147v17.065a3.933 3.933 0 000 5.552v5.146h31.465v-5.053A3.929 3.929 0 0034 26.413zm-.925 0a2.999 2.999 0 01-2.545 2.962v-.833.028l1.85-1.851-.657-.657-1.193 1.23v-1.758h-.926v3.84a3.008 3.008 0 113.47-2.97v.01zm-5.553-2.998v-.055h.065l-.065.055zm-9.254-11.623h12.03v1.388h-12.03v-1.388zm0 2.313h13.881v.463H18.268v-.463zm0 3.702h1.388v2.314h-1.388v-2.314zM7.162 6.239h8.792v.463H7.162v-.463zM3.461 3.925h.925v2.777h-.925V3.925zM.916 26.552a3.008 3.008 0 113.47 2.97v-.832l.033.028 1.85-1.851-.657-.652-1.226 1.226v-1.768h-.925v3.85a2.999 2.999 0 01-2.545-2.97zm1.157 3.47c.431.23.902.378 1.388.436v3.081H2.073v-3.516zm9.254 3.517H9.013v-5.09h2.314v5.09zm-3.24-6.015v6.015h-3.7v-3.081A3.934 3.934 0 006.7 23.767v-.87H5.372a3.955 3.955 0 00-1.449-.278 3.89 3.89 0 00-1.85.463V7.627h15.27v15.131a3.886 3.886 0 00-1.019-.139 3.945 3.945 0 00-1.448.278h-2.16v2.091a3.933 3.933 0 003.146 5.47v3.081h-3.61v-6.015H8.088zm11.569-3.059a4.003 4.003 0 00-1.037-1.105h1.037v1.105zm-2.869 5.058v-.838l.032.033 1.851-1.851-.634-.671-1.249 1.245v-1.768h-.925v3.85a2.999 2.999 0 01-2.545-2.97c0-.14.012-.28.032-.417.021-.175.055-.348.102-.518a3.008 3.008 0 113.322 3.905h.014zm0 4.016v-3.081c.188-.023.373-.06.555-.111v3.192h-.555zm7.033 0h-1.388v-4.627h1.388v4.627zm-2.313-5.552v5.552h-3.24v-3.567a3.924 3.924 0 001.99-3.42v.047h.324v-4.165h-2.313v-1.388h2.313V16.88h-2.313v-1.388h13.418v7.339a3.944 3.944 0 00-1.62-.352h-.23v-.046h-3.24v2.129a3.892 3.892 0 00-.462 1.85c0 .542.112 1.077.328 1.574h-4.955zm4.164 5.552h-.925v-4.627h.925v4.627zm.925-5.275a3.928 3.928 0 003.008 2.036v3.24h-3.008v-5.276zm5.09 5.275H30.53V30.3c.4-.05.79-.159 1.156-.324v3.563z" fill="#3E3E40"/><path d="M8.088 26.136h3.239v-3.24h-3.24v3.24zm.925-2.314h1.389v1.388H9.013v-1.388zm16.195-1.388H21.97V26.6h3.24v-4.165zm-.925 3.24h-1.388V23.36h1.388v2.313z" fill="#3E3E40"/></svg>