<svg width="132" height="38" fill="none" xmlns="http://www.w3.org/2000/svg"><path d="M15.377 38A15.264 15.264 0 014.51 33.41 15.812 15.812 0 010 22.353h4.396c0 2.964 1.157 5.807 3.217 7.903a10.888 10.888 0 007.766 3.274 10.89 10.89 0 007.767-3.274 11.279 11.279 0 003.217-7.903h4.392a15.812 15.812 0 01-4.51 11.059A15.264 15.264 0 0115.376 38zm15.356-21.234h-4.395V6.488l-9.729 6.822a2.167 2.167 0 01-2.485 0L4.396 6.483v10.283H0V2.237C0 1.83.109 1.43.315 1.08.522.731.82.446 1.173.256a2.166 2.166 0 012.27.135L15.364 8.73 27.29.39a2.173 2.173 0 012.27-.135c.354.19.65.475.857.824.207.35.316.75.316 1.157v14.529z" fill="red"/><path d="M44.571 7.41h1.561l3.004 4.182L52 7.406h1.46v8.96h-1.535V9.875l-2.776 3.98h-.211l-2.802-3.941v6.44h-1.548l-.017-8.943zm15.871-.137c2.615 0 4.59 1.83 4.59 4.616a4.582 4.582 0 01-.32 1.797 4.519 4.519 0 01-.995 1.521c-.43.433-.942.771-1.505.995a4.364 4.364 0 01-1.77.306c-2.616 0-4.573-1.829-4.573-4.62a4.57 4.57 0 01.316-1.794 4.45 4.45 0 012.491-2.514 4.352 4.352 0 011.766-.307zm0 7.763c1.848 0 2.953-1.383 2.953-3.147a3.053 3.053 0 00-.184-1.194 3.013 3.013 0 00-.63-1.024 2.953 2.953 0 00-.976-.688 2.91 2.91 0 00-1.163-.241c-1.688 0-2.953 1.287-2.953 3.146a3.037 3.037 0 00.817 2.212c.276.293.608.527.975.686.367.16.762.241 1.16.24v.01zm11.275 1.472c-2.847 0-4.922-1.717-4.922-4.62 0-2.622 1.86-4.615 4.749-4.615v1.469a2.947 2.947 0 00-1.207.203 2.99 2.99 0 00-1.026.678 3.052 3.052 0 00-.674 1.04 3.086 3.086 0 00-.21 1.226c0 2.009 1.497 3.147 3.29 3.147v1.472zm2.473-9.097h1.544v4.783l3.468-4.783h1.86l-2.7 3.753 2.929 5.194h-1.899l-2.139-3.825-1.519 1.97v1.855H74.19V7.411zm12.792-.138c2.612 0 4.586 1.83 4.586 4.616a4.582 4.582 0 01-.32 1.796 4.517 4.517 0 01-.993 1.52c-.43.433-.942.772-1.504.996a4.366 4.366 0 01-1.769.307c-2.615 0-4.577-1.829-4.577-4.62a4.568 4.568 0 01.317-1.795 4.44 4.44 0 012.493-2.514 4.353 4.353 0 011.767-.306zm0 7.763c1.848 0 2.953-1.383 2.953-3.147a3.056 3.056 0 00-.183-1.194 3.015 3.015 0 00-.63-1.024 2.953 2.953 0 00-.977-.688 2.909 2.909 0 00-1.163-.241c-1.687 0-2.953 1.288-2.953 3.147a3.055 3.055 0 00.824 2.205c.276.292.606.526.972.686.365.16.759.245 1.157.247v.009zm6.995-7.625h1.32c2.147 0 3.104.975 3.104 2.267a2.175 2.175 0 01-.347 1.17 2.118 2.118 0 01-.918.788c.43.145.801.429 1.059.809.257.38.386.834.366 1.294 0 1.778-1.177 2.636-3.442 2.636h-1.142V7.411zm1.547 1.473v2.28h.123a1.137 1.137 0 00.853-.317 1.177 1.177 0 00.366-.847c0-.717-.515-1.1-1.266-1.1l-.076-.016zm0 3.632v2.366h.097c.806 0 1.397-.473 1.397-1.241 0-.769-.591-1.138-1.308-1.138l-.186.013zm9.976 3.992c-2.855 0-4.926-1.717-4.926-4.62 0-2.622 1.86-4.615 4.749-4.615v1.469a2.976 2.976 0 00-2.232.881 3.047 3.047 0 00-.675 1.04 3.104 3.104 0 00-.21 1.226c0 2.009 1.498 3.147 3.294 3.147v1.472zM108 7.41h1.544v4.783l3.468-4.783h1.86l-2.725 3.752 2.932 5.195h-1.903l-2.134-3.825-1.519 1.97v1.855H108V7.41zm9.15 8.956V7.41h1.544v6.371l4.612-6.37h1.358v8.955h-1.544v-6.358l-4.615 6.358h-1.355zm10.577-8.955h4.183v1.473h-2.636v2.228h2.223v1.468h-2.223v2.314h2.725v1.473h-4.272V7.411zM48.515 20.669c2.612 0 4.586 1.829 4.586 4.615a4.583 4.583 0 01-.32 1.797 4.518 4.518 0 01-.993 1.52c-.43.433-.941.771-1.504.995a4.366 4.366 0 01-1.769.308c-2.615 0-4.577-1.83-4.577-4.62a4.57 4.57 0 01.317-1.795c.225-.57.562-1.087.991-1.52.429-.432.94-.77 1.502-.994a4.352 4.352 0 011.767-.306zm0 7.762c1.848 0 2.953-1.382 2.953-3.147a3.054 3.054 0 00-.183-1.194 3.015 3.015 0 00-.63-1.023 2.954 2.954 0 00-.976-.688 2.908 2.908 0 00-1.164-.242c-1.687 0-2.953 1.288-2.953 3.147a3.05 3.05 0 00.814 2.217c.277.295.608.529.976.689.368.16.764.242 1.163.241zm6.975-7.625h1.547v4.787l3.468-4.787h1.86l-2.703 3.76 2.953 5.196h-1.899l-2.139-3.826-1.54 1.97v1.856H55.49v-8.956zm14.744 5.13h-4.025v3.826h-1.544v-8.956h1.544v3.666h4.025v-3.666h1.531v8.956h-1.531v-3.826zm7.184-5.156h1.359l3.72 8.982h-1.649l-.915-2.284h-3.76l-.919 2.288h-1.557l3.721-8.986zM76.781 26h2.578l-1.266-3.18L76.781 26z" fill="#3E3E40"/></svg>