<svg width="143" height="19" fill="none" xmlns="http://www.w3.org/2000/svg"><path d="M5.488 2.463c-1.437.744-2.899 1.513-4.104 2.77C.255 6.387-.053 8.363.64 9.85c.692 1.437 1.667 2.72 2.821 3.95A15.955 15.955 0 015.488 2.463z" fill="#37A58C"/><path d="M4.308 14.545c1.41.898 2.796 1.744 4.412 2.129 1.77.41 3.437-.334 4.488-1.745.873-1.359 1.437-2.796 1.924-4.309-3.078 2.59-6.669 3.95-10.824 3.925z" fill="#DD0060"/><path d="M14.85 3.669c-.667-1.283-2.026-2.104-3.411-2.232-1.668-.077-3.232.128-4.746.487 3.514 1.129 7.003 4.053 8.799 7.413.076-1.949.18-4.027-.642-5.668zm30.704-2.455v6.259H43.76v-6.26h-4.13v15.16h4.13V10.09h1.77v6.284h4.13V1.213h-4.105zm8.106 0c-1.31 0-2.207 1.128-2.207 2.488v12.671h4.104V10.09h1.667v6.284h4.079V1.213h-7.644zm3.565 6.259h-1.668V4.395c0-.565.205-.77.718-.77h.95v3.848zM27.06 8.704c.949-.103 2.052-1.103 2.052-2.437V3.702c-.026-1.385-1.052-2.488-2.13-2.488H19.16v15.16h4.079v-6.285h1.026c.487 0 .718.23.718.795V16.4h4.13v-5.207c0-1.36-1.078-2.386-2.052-2.488zm-2.078-2c.026.46-.18.717-.513.769h-1.206V3.625h1.026c.513 0 .718.257.718.77l-.025 2.308zm10.055-2.566h2.822V1.214h-6.952v15.16h6.952v-2.925h-2.822v-3.36h2.386V7.473h-2.386V4.138zm37.68 10.722c.231-.564.283-1.129.283-1.821v-11.8h-4.028v11.697c0 .333-.205.847-.897.847h-.026c-.693 0-.898-.54-.898-.847V1.239h-4.027v11.8c0 .744.051 1.282.282 1.82.308.693 1 1.258 1.719 1.437.282.077.667.077 1.103.077h3.694c.436 0 .795-.026 1.102-.077.719-.205 1.386-.77 1.693-1.436zM81.75 8h1.53V2.7h2.53V8h1.53V1.41h-5.59V8zm6.36 0h1.57l.6-1.57h2.14L93.05 8h1.64l-2.73-6.62H90.7L88.11 8zm2.6-2.79l.33-.9c.17-.45.26-.73.31-.95h.02c.05.21.13.49.28.94l.31.91h-1.25zM95.46 8h1.53V5.84h.17c.58 0 1.05-.08 1.43-.22 1.04-.39 1.37-1.24 1.37-2 0-.94-.41-1.6-1.15-1.94-.41-.19-.92-.27-1.51-.27h-1.84V8zm1.53-3.39V2.64h.23c.3 0 .53.04.7.14.31.18.45.5.45.84 0 .42-.15.73-.47.88-.17.08-.39.11-.65.11h-.26zM102.494 8h1.53V2.7h1.69l.39-1.29h-5.54V2.7h1.93V8zm4.364 0h1.53V5.3h2.83V8h1.53V1.41h-1.53V4h-2.83V1.41h-1.53V8zm7.393 0h3.94V6.71h-2.41V5.32h2.07V4.03h-2.07V2.7h2.04l.39-1.29h-3.96V8zm5.264 0h1.53V5.84h.17c.58 0 1.05-.08 1.43-.22 1.04-.39 1.37-1.24 1.37-2 0-.94-.41-1.6-1.15-1.94-.41-.19-.92-.27-1.51-.27h-1.84V8zm1.53-3.39V2.64h.23c.3 0 .53.04.7.14.31.18.45.5.45.84 0 .42-.15.73-.47.88-.17.08-.39.11-.65.11h-.26zm6.12 3.39h1.52V4.77c0-.28-.01-.65-.06-.96h.03c.16.3.3.55.48.84l2.15 3.35h1.42V1.41h-1.52v2.93c0 .36.01.76.05 1.1h-.03c-.15-.31-.27-.53-.45-.82l-2.06-3.21h-1.53V8zm6.25-1.27h3.44v-.84h-3.44v.84zm1.72-1.36c1.04 0 1.77-.72 1.77-1.74s-.73-1.74-1.77-1.74-1.77.72-1.77 1.74.73 1.74 1.77 1.74zm0-.92c-.41 0-.63-.35-.63-.82s.22-.82.63-.82c.41 0 .63.35.63.82s-.22.82-.63.82zM139.774 8h1.49V1.36h-1.12l-2.38 1.02.5 1.17 1.51-.64V8zM86.81 15.34c-.49.29-.97.49-1.66.49-1.24 0-2.02-.85-2.02-2.08 0-1.13.62-2.14 2.04-2.14.62 0 1.21.15 1.76.44v-1.4c-.46-.19-1.06-.31-1.8-.31-2.23 0-3.63 1.54-3.63 3.43 0 1.93 1.18 3.33 3.46 3.33.7 0 1.46-.12 2.27-.56l-.42-1.2zM91.893 17h1.49v-6.64h-1.12l-2.38 1.02.5 1.17 1.51-.64V17zm4.677.1c2.08 0 3.12-1.31 3.12-3.64 0-2.22-1.11-3.12-2.58-3.12-1.39 0-2.43.91-2.43 2.34 0 1.41.93 2.06 2.05 2.06.49 0 .97-.12 1.35-.39h.01c-.16 1.08-.65 1.54-1.57 1.54-.45 0-.91-.14-1.29-.35l-.37 1.19c.51.25 1.08.37 1.71.37zm.52-3.57c-.53 0-.85-.33-.85-.97 0-.63.33-1.01.83-1.01.64 0 1.05.67 1.06 1.54-.24.23-.62.44-1.04.44zm5.291 3.57c2.08 0 3.12-1.31 3.12-3.64 0-2.22-1.11-3.12-2.58-3.12-1.39 0-2.43.91-2.43 2.34 0 1.41.93 2.06 2.05 2.06.49 0 .97-.12 1.35-.39h.01c-.16 1.08-.65 1.54-1.57 1.54-.45 0-.91-.14-1.29-.35l-.37 1.19c.51.25 1.08.37 1.71.37zm.52-3.57c-.53 0-.85-.33-.85-.97 0-.63.33-1.01.83-1.01.64 0 1.05.67 1.06 1.54-.24.23-.62.44-1.04.44zm3.25 3.47h4.99v-1.29h-2.99c.43-1.13 2.87-1.78 2.87-3.56 0-1.07-.73-1.81-2.25-1.81-.99 0-1.79.29-2.4.56l.38 1.17c.54-.24 1.08-.46 1.76-.46.46 0 .91.18.91.71 0 1.22-3.01 1.49-3.27 4.68zm8.236 0h1.53v-5.3h2.14l.39-1.29h-4.06V17zm7.964.1c2.01 0 3.4-1.38 3.4-3.38s-1.39-3.38-3.4-3.38-3.4 1.38-3.4 3.38 1.39 3.38 3.4 3.38zm0-1.27c-1.04 0-1.77-.71-1.77-2.11s.73-2.11 1.77-2.11 1.77.71 1.77 2.11-.73 2.11-1.77 2.11zm4.203 3.07h1.47V17h3.91v1.9h1.47v-3.2h-.95v-5.29h-3.72c-.42 2.57-.94 4.36-1.76 5.29h-.42v3.2zm4.37-3.2h-2.3v-.02c.61-.95 1.04-2.43 1.28-4.04h1.02v4.06zm2.801 1.3h1.57l.6-1.57h2.14l.63 1.57h1.64l-2.73-6.62h-1.26l-2.59 6.62zm2.6-2.79l.33-.9c.17-.45.26-.73.31-.95h.02c.05.21.13.49.28.94l.31.91h-1.25z" fill="#3E3E40"/></svg>