<svg width="34" height="34" viewBox="0 0 34 34" fill="none" xmlns="http://www.w3.org/2000/svg">
<path d="M23.8571 0V34H33.381V0H23.8571ZM26.7143 33.0145V30.058H27.1905V33.0145H26.7143ZM29.0952 33.0145H28.1429V30.058H29.0952V33.0145ZM30.5238 33.0145H30.0476V30.058H30.5238V33.0145ZM32.4286 33.0145H31.4762V29.0725H25.7619V33.0145H24.8095V0.985507H32.4286V33.0145Z" fill="#3E3E40"/>
<path d="M28.1429 26.658H25.7619V27.6435H28.1429V26.658Z" fill="#3E3E40"/>
<path d="M31.4762 26.658H29.0952V27.6435H31.4762V26.658Z" fill="#3E3E40"/>
<path d="M28.1429 24.687H25.7619V25.6725H28.1429V24.687Z" fill="#3E3E40"/>
<path d="M31.4762 24.687H29.0952V25.6725H31.4762V24.687Z" fill="#3E3E40"/>
<path d="M28.1429 22.7159H25.7619V23.7014H28.1429V22.7159Z" fill="#3E3E40"/>
<path d="M31.4762 22.7159H29.0952V23.7014H31.4762V22.7159Z" fill="#3E3E40"/>
<path d="M31.4762 20.7449H25.7619V21.7304H31.4762V20.7449Z" fill="#3E3E40"/>
<path d="M31.4762 18.7739H25.7619V19.7594H31.4762V18.7739Z" fill="#3E3E40"/>
<path d="M28.1429 16.8029H25.7619V17.7884H28.1429V16.8029Z" fill="#3E3E40"/>
<path d="M31.4762 16.8029H29.0952V17.7884H31.4762V16.8029Z" fill="#3E3E40"/>
<path d="M28.1429 14.8319H25.7619V15.8174H28.1429V14.8319Z" fill="#3E3E40"/>
<path d="M31.4762 14.8319H29.0952V15.8174H31.4762V14.8319Z" fill="#3E3E40"/>
<path d="M28.1429 12.8609H25.7619V13.8464H28.1429V12.8609Z" fill="#3E3E40"/>
<path d="M31.4762 12.8609H29.0952V13.8464H31.4762V12.8609Z" fill="#3E3E40"/>
<path d="M31.4762 10.8899H25.7619V11.8754H31.4762V10.8899Z" fill="#3E3E40"/>
<path d="M31.4762 8.91884H25.7619V9.90435H31.4762V8.91884Z" fill="#3E3E40"/>
<path d="M28.1429 6.94783H25.7619V7.93333H28.1429V6.94783Z" fill="#3E3E40"/>
<path d="M31.4762 6.94783H29.0952V7.93333H31.4762V6.94783Z" fill="#3E3E40"/>
<path d="M28.1429 4.97681H25.7619V5.96232H28.1429V4.97681Z" fill="#3E3E40"/>
<path d="M31.4762 4.97681H29.0952V5.96232H31.4762V4.97681Z" fill="#3E3E40"/>
<path d="M28.1429 3.0058H25.7619V3.9913H28.1429V3.0058Z" fill="#3E3E40"/>
<path d="M31.4762 3.0058H29.0952V3.9913H31.4762V3.0058Z" fill="#3E3E40"/>
<path d="M12.4286 3.94203V34H21.9524V3.94203H12.4286ZM15.2857 33.0145V30.058H16.7143V33.0145H15.2857ZM17.6667 33.0145V30.058H19.0952V33.0145H17.6667ZM21 33.0145H20.0476V29.0725H14.3333V33.0145H13.381V4.92754H21V33.0145Z" fill="#3E3E40"/>
<path d="M16.7143 26.658H14.3333V27.6435H16.7143V26.658Z" fill="#3E3E40"/>
<path d="M20.0476 26.658H17.6667V27.6435H20.0476V26.658Z" fill="#3E3E40"/>
<path d="M16.7143 24.687H14.3333V25.6725H16.7143V24.687Z" fill="#3E3E40"/>
<path d="M20.0476 24.687H17.6667V25.6725H20.0476V24.687Z" fill="#3E3E40"/>
<path d="M16.7143 22.7159H14.3333V23.7014H16.7143V22.7159Z" fill="#3E3E40"/>
<path d="M20.0476 22.7159H17.6667V23.7014H20.0476V22.7159Z" fill="#3E3E40"/>
<path d="M16.7143 20.7449H14.3333V21.7304H16.7143V20.7449Z" fill="#3E3E40"/>
<path d="M20.0476 20.7449H17.6667V21.7304H20.0476V20.7449Z" fill="#3E3E40"/>
<path d="M16.7143 18.7739H14.3333V19.7594H16.7143V18.7739Z" fill="#3E3E40"/>
<path d="M20.0476 18.7739H17.6667V19.7594H20.0476V18.7739Z" fill="#3E3E40"/>
<path d="M16.7143 16.8029H14.3333V17.7884H16.7143V16.8029Z" fill="#3E3E40"/>
<path d="M20.0476 16.8029H17.6667V17.7884H20.0476V16.8029Z" fill="#3E3E40"/>
<path d="M16.7143 14.8319H14.3333V15.8174H16.7143V14.8319Z" fill="#3E3E40"/>
<path d="M20.0476 14.8319H17.6667V15.8174H20.0476V14.8319Z" fill="#3E3E40"/>
<path d="M20.0476 12.8609H14.3333V13.8464H20.0476V12.8609Z" fill="#3E3E40"/>
<path d="M20.0476 10.8899H14.3333V11.8754H20.0476V10.8899Z" fill="#3E3E40"/>
<path d="M20.0476 8.91884H14.3333V9.90435H20.0476V8.91884Z" fill="#3E3E40"/>
<path d="M20.0476 6.94783H14.3333V7.93333H20.0476V6.94783Z" fill="#3E3E40"/>
<path d="M1 7.88406V34H10.5238V7.88406H1ZM3.85714 33.0145V30.058H4.33333V33.0145H3.85714ZM5.28571 33.0145V30.058H6.23809V33.0145H5.28571ZM7.19048 33.0145V30.058H7.66667V33.0145H7.19048ZM9.57143 33.0145H8.61905V29.0725H2.90476V33.0145H1.95238V8.86957H9.57143V33.0145Z" fill="#3E3E40"/>
<path d="M8.61905 26.658H2.90476V27.6435H8.61905V26.658Z" fill="#3E3E40"/>
<path d="M8.61905 24.687H2.90476V25.6725H8.61905V24.687Z" fill="#3E3E40"/>
<path d="M5.28571 22.7159H2.90476V23.7014H5.28571V22.7159Z" fill="#3E3E40"/>
<path d="M8.61905 22.7159H6.23809V23.7014H8.61905V22.7159Z" fill="#3E3E40"/>
<path d="M5.28571 20.7449H2.90476V21.7304H5.28571V20.7449Z" fill="#3E3E40"/>
<path d="M8.61905 20.7449H6.23809V21.7304H8.61905V20.7449Z" fill="#3E3E40"/>
<path d="M5.28571 18.7739H2.90476V19.7594H5.28571V18.7739Z" fill="#3E3E40"/>
<path d="M8.61905 18.7739H6.23809V19.7594H8.61905V18.7739Z" fill="#3E3E40"/>
<path d="M5.28571 16.8029H2.90476V17.7884H5.28571V16.8029Z" fill="#3E3E40"/>
<path d="M8.61905 16.8029H6.23809V17.7884H8.61905V16.8029Z" fill="#3E3E40"/>
<path d="M5.28571 14.8319H2.90476V15.8174H5.28571V14.8319Z" fill="#3E3E40"/>
<path d="M8.61905 14.8319H6.23809V15.8174H8.61905V14.8319Z" fill="#3E3E40"/>
<path d="M8.61905 12.8609H2.90476V13.8464H8.61905V12.8609Z" fill="#3E3E40"/>
<path d="M8.61905 10.8899H2.90476V11.8754H8.61905V10.8899Z" fill="#3E3E40"/>
</svg>
