<svg width="34" height="35" viewBox="0 0 34 35" fill="none" xmlns="http://www.w3.org/2000/svg">
<path d="M3.46075 12.2543H6.69976V9.01531H3.46075V12.2543ZM4.38618 9.94074H5.77433V11.3289H4.38618V9.94074Z" fill="#3E3E40"/>
<path d="M8.0879 12.2543H11.3269V9.01531H8.0879V12.2543ZM9.01334 9.94074H10.4015V11.3289H9.01334V9.94074Z" fill="#3E3E40"/>
<path d="M15.9541 9.01531H12.7151V12.2543H15.9541V9.01531ZM15.0286 11.3289H13.6405V9.94074H15.0286V11.3289Z" fill="#3E3E40"/>
<path d="M3.46075 16.8815H6.69976V13.6425H3.46075V16.8815ZM4.38618 14.5679H5.77433V15.956H4.38618V14.5679Z" fill="#3E3E40"/>
<path d="M8.0879 16.8815H11.3269V13.6425H8.0879V16.8815ZM9.01334 14.5679H10.4015V15.956H9.01334V14.5679Z" fill="#3E3E40"/>
<path d="M15.9541 13.6425H12.7151V16.8815H15.9541V13.6425ZM15.0286 15.956H13.6405V14.5679H15.0286V15.956Z" fill="#3E3E40"/>
<path d="M3.46075 21.5086H6.69976V18.2696H3.46075V21.5086ZM4.38618 19.1951H5.77433V20.5832H4.38618V19.1951Z" fill="#3E3E40"/>
<path d="M8.0879 21.5086H11.3269V18.2696H8.0879V21.5086ZM9.01334 19.1951H10.4015V20.5832H9.01334V19.1951Z" fill="#3E3E40"/>
<path d="M15.9541 18.2696H12.7151V21.5086H15.9541V18.2696ZM15.0286 20.5832H13.6405V19.1951H15.0286V20.5832Z" fill="#3E3E40"/>
<path d="M25.2084 16.8815H21.9694V21.0459H25.2084V16.8815ZM24.283 20.1205H22.8948V17.8069H24.283V20.1205Z" fill="#3E3E40"/>
<path d="M29.8356 16.8815H26.5965V21.0459H29.8356V16.8815ZM28.9101 20.1205H27.522V17.8069H28.9101V20.1205Z" fill="#3E3E40"/>
<path d="M34 26.4134C34.0003 25.8428 33.8762 25.279 33.6365 24.7612C33.3968 24.2434 33.0471 23.784 32.6119 23.415V15.4933H33.0746V13.1798H31.2237V10.8662H18.2677V6.70173H16.8795V5.31358H6.23704V6.70173H5.31161V3H2.53531V6.70173H1.14717V23.7667C0.412512 24.5039 0 25.5022 0 26.543C0 27.5837 0.412512 28.5821 1.14717 29.3193V34.4647H32.6119V29.4118C33.0471 29.0428 33.3968 28.5835 33.6365 28.0657C33.8762 27.5479 34.0003 26.984 34 26.4134ZM33.0746 26.4134C33.074 27.1296 32.817 27.822 32.3502 28.3652C31.8834 28.9083 31.2376 29.2665 30.5296 29.3748V28.5419V28.5697L32.3805 26.7188L31.7234 26.0618L30.5296 27.2926V25.5343H29.6042V29.3748C29.0359 29.2863 28.5049 29.0368 28.0741 28.6557C27.6433 28.2746 27.3309 27.778 27.1737 27.2248C27.0166 26.6715 27.0213 26.0848 27.1875 25.5342C27.3536 24.9835 27.6741 24.4921 28.1111 24.1181C28.548 23.7441 29.083 23.5032 29.6526 23.424C30.2223 23.3448 30.8027 23.4305 31.3251 23.6711C31.8475 23.9117 32.29 24.2971 32.6001 24.7815C32.9101 25.2659 33.0748 25.829 33.0746 26.4042V26.4134ZM27.522 23.415V23.3595H27.5868L27.522 23.415ZM18.2677 11.7916H30.2983V13.1798H18.2677V11.7916ZM18.2677 14.1052H32.1491V14.5679H18.2677V14.1052ZM18.2677 17.8069H19.6558V20.1205H18.2677V17.8069ZM7.16247 6.23901H15.9541V6.70173H7.16247V6.23901ZM3.46075 3.92543H4.38618V6.70173H3.46075V3.92543ZM0.915809 26.5522C0.915577 25.9771 1.08026 25.414 1.39032 24.9296C1.70039 24.4452 2.14285 24.0598 2.66524 23.8192C3.18764 23.5786 3.76807 23.4928 4.33773 23.572C4.90738 23.6513 5.44239 23.8922 5.87931 24.2662C6.31624 24.6402 6.63677 25.1316 6.8029 25.6822C6.96904 26.2329 6.97381 26.8196 6.81667 27.3728C6.65952 27.9261 6.34703 28.4227 5.91626 28.8038C5.48548 29.1848 4.95447 29.4344 4.38618 29.5229V28.69L4.41857 28.7178L6.26943 26.8669L5.61238 26.2145L4.38618 27.4407V25.6731H3.46075V29.5229C2.7512 29.4143 2.10414 29.0548 1.63715 28.5097C1.17015 27.9646 0.914199 27.27 0.915809 26.5522ZM2.0726 30.0226C2.5042 30.2528 2.97499 30.4003 3.46075 30.4576V33.5393H2.0726V30.0226ZM11.3269 33.5393H9.01334V28.4494H11.3269V33.5393ZM8.0879 27.5239V33.5393H4.38618V30.4576C5.11989 30.3705 5.81424 30.0785 6.38969 29.6151C6.96514 29.1516 7.39841 28.5355 7.63987 27.8372C7.88132 27.1389 7.9212 26.3867 7.75493 25.6668C7.58867 24.9469 7.22298 24.2884 6.69976 23.7667V22.8968H5.37176C4.91066 22.7143 4.41936 22.6201 3.92346 22.6192C3.27767 22.6174 2.6416 22.7764 2.0726 23.0819V7.62716H17.3422V22.758C17.0105 22.6669 16.6682 22.6202 16.3242 22.6192C15.8283 22.6201 15.337 22.7143 14.8759 22.8968H12.7151V24.9883C12.4714 25.5507 12.3626 26.1623 12.3972 26.7743C12.4319 27.3863 12.6092 27.9817 12.9148 28.5131C13.2205 29.0444 13.6461 29.4969 14.1578 29.8345C14.6694 30.1721 15.2528 30.3855 15.8615 30.4576V33.5393H12.2523V27.5239H8.0879ZM19.6558 24.4654C19.3839 24.0341 19.0321 23.6588 18.6193 23.3595H19.6558V24.4654ZM16.787 29.5229V28.6854L16.8194 28.7178L18.6702 26.8669L18.0363 26.196L16.787 27.4407V25.6731H15.8615V29.5229C15.152 29.4143 14.5049 29.0548 14.0379 28.5097C13.5709 27.9646 13.315 27.27 13.3166 26.5522C13.3178 26.4128 13.3286 26.2737 13.349 26.1358C13.3704 25.9608 13.4044 25.7876 13.4508 25.6176C13.6168 25.1092 13.9153 24.6543 14.3156 24.2997C14.7159 23.9451 15.2035 23.7037 15.7281 23.6003C16.2528 23.4968 16.7955 23.5351 17.3005 23.7113C17.8054 23.8874 18.2542 24.1949 18.6007 24.6023C18.9472 25.0096 19.1789 25.5019 19.2718 26.0285C19.3647 26.5552 19.3155 27.097 19.1293 27.5983C18.9431 28.0996 18.6267 28.5422 18.2125 28.8805C17.7983 29.2188 17.3015 29.4405 16.7731 29.5229H16.787ZM16.787 33.5393V30.4576C16.9746 30.4348 17.1602 30.3977 17.3422 30.3465V33.5393H16.787ZM23.8202 33.5393H22.4321V28.9121H23.8202V33.5393ZM21.5067 27.9867V33.5393H18.2677V29.9717C18.8725 29.6291 19.3754 29.1319 19.725 28.5311C20.0746 27.9303 20.2583 27.2474 20.2573 26.5522V26.5985H20.5812V22.4341H18.2677V21.0459H20.5812V16.8815H18.2677V15.4933H31.6864V22.832C31.1776 22.6014 30.6256 22.4815 30.0669 22.4803C29.9883 22.4803 29.9142 22.4803 29.8356 22.4803V22.4341H26.5965V24.5626C26.2911 25.1316 26.1321 25.7676 26.1338 26.4134C26.1345 26.9548 26.2464 27.4902 26.4624 27.9867H21.5067ZM25.6711 33.5393H24.7457V28.9121H25.6711V33.5393ZM26.5965 28.2643C26.897 28.8206 27.3273 29.2963 27.851 29.6507C28.3746 30.0052 28.976 30.228 29.6042 30.3002V33.5393H26.5965V28.2643ZM31.6864 33.5393H30.5296V30.3002C30.9292 30.2504 31.3191 30.1412 31.6864 29.9763V33.5393Z" fill="#3E3E40"/>
<path d="M8.0879 26.1358H11.3269V22.8968H8.0879V26.1358ZM9.01334 23.8222H10.4015V25.2104H9.01334V23.8222Z" fill="#3E3E40"/>
<path d="M25.2084 22.4341H21.9694V26.5985H25.2084V22.4341ZM24.283 25.6731H22.8948V23.3595H24.283V25.6731Z" fill="#3E3E40"/>
</svg>
