<svg width="16" height="16" viewBox="0 0 16 16" fill="none" xmlns="http://www.w3.org/2000/svg">
<path d="M8 1.33333C4.3181 1.33333 1.33333 4.3181 1.33333 8V9.33333H2.66667C3.40305 9.33333 4 9.93029 4 10.6667V14.6667C4 15.403 3.40305 16 2.66667 16H1.33333C0.596954 16 0 15.403 0 14.6667V8C0 3.58172 3.58172 0 8 0C12.4183 0 16 3.58172 16 8V14.6667C16 15.403 15.403 16 14.6667 16H13.3333C12.597 16 12 15.403 12 14.6667V10.6667C12 9.93029 12.597 9.33333 13.3333 9.33333H14.6667V8C14.6667 4.3181 11.6819 1.33333 8 1.33333Z" fill="currentColor"/>
</svg>
