<svg width="12" height="12" viewBox="0 0 12 12" fill="none" xmlns="http://www.w3.org/2000/svg">
<path fill-rule="evenodd" clip-rule="evenodd" d="M3.75 8.625C3.75 8.41789 3.91789 8.25 4.125 8.25H10.875C11.0821 8.25 11.25 8.41789 11.25 8.625C11.25 8.83211 11.0821 9 10.875 9H4.125C3.91789 9 3.75 8.83211 3.75 8.625Z" fill="currentColor"/>
<path fill-rule="evenodd" clip-rule="evenodd" d="M3.75 5.625C3.75 5.41789 3.91789 5.25 4.125 5.25H10.875C11.0821 5.25 11.25 5.41789 11.25 5.625C11.25 5.83211 11.0821 6 10.875 6H4.125C3.91789 6 3.75 5.83211 3.75 5.625Z" fill="currentColor"/>
<path fill-rule="evenodd" clip-rule="evenodd" d="M3.75 2.625C3.75 2.41789 3.91789 2.25 4.125 2.25H10.875C11.0821 2.25 11.25 2.41789 11.25 2.625C11.25 2.83211 11.0821 3 10.875 3H4.125C3.91789 3 3.75 2.83211 3.75 2.625Z" fill="currentColor"/>
<path fill-rule="evenodd" clip-rule="evenodd" d="M1.5 3.375C1.91421 3.375 2.25 3.03921 2.25 2.625C2.25 2.21079 1.91421 1.875 1.5 1.875C1.08579 1.875 0.75 2.21079 0.75 2.625C0.75 3.03921 1.08579 3.375 1.5 3.375Z" fill="currentColor"/>
<path fill-rule="evenodd" clip-rule="evenodd" d="M1.5 6.375C1.91421 6.375 2.25 6.03921 2.25 5.625C2.25 5.21079 1.91421 4.875 1.5 4.875C1.08579 4.875 0.75 5.21079 0.75 5.625C0.75 6.03921 1.08579 6.375 1.5 6.375Z" fill="currentColor"/>
<path fill-rule="evenodd" clip-rule="evenodd" d="M1.5 9.375C1.91421 9.375 2.25 9.03921 2.25 8.625C2.25 8.21079 1.91421 7.875 1.5 7.875C1.08579 7.875 0.75 8.21079 0.75 8.625C0.75 9.03921 1.08579 9.375 1.5 9.375Z" fill="currentColor"/>
</svg>
