<svg width="17" height="16" viewBox="0 0 17 16" fill="none" xmlns="http://www.w3.org/2000/svg">
<rect width="16" height="16" transform="translate(0.333984)" fill="white"/>
<path fill-rule="evenodd" clip-rule="evenodd" d="M2.21876 0.511076C2.96087 -0.231039 4.18548 -0.154797 4.82981 0.673634L6.62352 2.97983C6.95268 3.40304 7.069 3.95409 6.93897 4.47423L6.3917 6.66329C6.33392 6.8944 6.40164 7.13888 6.57009 7.30732L9.02666 9.7639C9.19511 9.93235 9.43959 10.0001 9.67069 9.94229L11.8598 9.39502C12.3799 9.26499 12.9309 9.3813 13.3542 9.71047L15.6603 11.5042C16.4888 12.1485 16.565 13.3731 15.8229 14.1152L14.789 15.1492C14.0493 15.8889 12.9429 16.2137 11.9117 15.8512C9.35153 14.9511 6.94837 13.4774 4.90247 11.4315C2.85658 9.38562 1.38293 6.98246 0.482822 4.42225C0.120302 3.39112 0.445114 2.28472 1.18483 1.545L2.21876 0.511076Z" fill="currentColor"/>
<path fill-rule="evenodd" clip-rule="evenodd" d="M11.334 0.5C11.334 0.223858 11.5578 0 11.834 0H15.834C16.1101 0 16.334 0.223858 16.334 0.5V4.5C16.334 4.77614 16.1101 5 15.834 5C15.5578 5 15.334 4.77614 15.334 4.5V1.70711L11.1875 5.85355C10.9923 6.04882 10.6757 6.04882 10.4804 5.85355C10.2852 5.65829 10.2852 5.34171 10.4804 5.14645L14.6269 1H11.834C11.5578 1 11.334 0.776142 11.334 0.5Z" fill="currentColor"/>
</svg>
