<svg width="20" height="20" viewBox="0 0 20 20" fill="none" xmlns="http://www.w3.org/2000/svg">
<path d="M9.92913 2.125C11.2452 2.125 12.3121 3.13236 12.3121 4.375V8.875H7.54615V4.375C7.54615 3.13236 8.61304 2.125 9.92913 2.125ZM13.5036 8.875V4.375C13.5036 2.51104 11.9032 1 9.92913 1C7.955 1 6.35466 2.51104 6.35466 4.375V8.875C5.03858 8.875 3.97168 9.88236 3.97168 11.125V16.75C3.97168 17.9926 5.03858 19 6.35466 19H13.5036C14.8197 19 15.8866 17.9926 15.8866 16.75V11.125C15.8866 9.88236 14.8197 8.875 13.5036 8.875Z" fill="currentColor"/>
</svg>
