<svg width="16" height="19" viewBox="0 0 16 19" fill="none" xmlns="http://www.w3.org/2000/svg">
<path d="M5.81257 14.8438C5.81257 15.8275 5.03186 16.625 4.0688 16.625C3.10574 16.625 2.32503 15.8275 2.32503 14.8438C2.32503 14.0682 2.81027 13.4084 3.48754 13.1639V11.2812C3.48754 10.9533 3.74778 10.6875 4.0688 10.6875C4.38982 10.6875 4.65006 10.9533 4.65006 11.2812V13.1639C5.32734 13.4084 5.81257 14.0682 5.81257 14.8438Z" fill="currentColor"/>
<path d="M1.16251 2.96875C1.16251 1.32915 2.4637 0 4.0688 0C5.6739 0 6.97509 1.32915 6.97509 2.96875V11.935C7.69357 12.684 8.1376 13.7113 8.1376 14.8438C8.1376 17.1392 6.31594 19 4.0688 19C1.82166 19 0 17.1392 0 14.8438C0 13.7113 0.444035 12.684 1.16251 11.935V2.96875ZM4.0688 1.1875C3.10574 1.1875 2.32503 1.98499 2.32503 2.96875V12.4538L2.13142 12.6308C1.53591 13.1752 1.16251 13.9646 1.16251 14.8438C1.16251 16.4833 2.4637 17.8125 4.0688 17.8125C5.6739 17.8125 6.97509 16.4833 6.97509 14.8438C6.97509 13.9646 6.60169 13.1752 6.00618 12.6308L5.81257 12.4538V2.96875C5.81257 1.98499 5.03186 1.1875 4.0688 1.1875Z" fill="currentColor"/>
<path d="M9.88137 2.375C10.2024 2.375 10.4626 2.64083 10.4626 2.96875V4.50406L11.2141 3.73641C11.4411 3.50453 11.8092 3.50453 12.0362 3.73641C12.2632 3.96828 12.2632 4.34422 12.0362 4.57609L10.4626 6.18344V8.47162L12.4026 7.32751L12.9785 5.13184C13.0616 4.81509 13.3804 4.62712 13.6904 4.71199C14.0005 4.79687 14.1845 5.12244 14.1014 5.43919L13.8264 6.48782L15.128 5.72017C15.406 5.55621 15.7615 5.65351 15.922 5.9375C16.0825 6.22148 15.9873 6.58461 15.7093 6.74857L14.4076 7.51623L15.4342 7.79721C15.7443 7.88208 15.9283 8.20766 15.8452 8.5244C15.7621 8.84115 15.4434 9.02912 15.1333 8.94425L12.9838 8.35592L11.0439 9.5L12.9838 10.6441L15.1333 10.0557C15.4434 9.97087 15.7621 10.1588 15.8452 10.4756C15.9283 10.7923 15.7443 11.1179 15.4342 11.2028L14.4076 11.4838L15.7092 12.2514C15.9873 12.4154 16.0825 12.7785 15.922 13.0625C15.7615 13.3465 15.406 13.4438 15.128 13.2798L13.8263 12.5122L14.1014 13.5608C14.1845 13.8776 14.0005 14.2031 13.6904 14.288C13.3803 14.3729 13.0616 14.1849 12.9785 13.8682L12.4026 11.6725L10.4626 10.5284V12.8166L12.0362 14.4239C12.2632 14.6558 12.2632 15.0317 12.0362 15.2636C11.8092 15.4955 11.4411 15.4955 11.2141 15.2636L10.4626 14.4959V16.0312C10.4626 16.3592 10.2024 16.625 9.88137 16.625C9.56035 16.625 9.30012 16.3592 9.30012 16.0312V2.96875C9.30012 2.64083 9.56035 2.375 9.88137 2.375Z" fill="currentColor"/>
</svg>
