<svg width="17" height="16" viewBox="0 0 17 16" fill="none" xmlns="http://www.w3.org/2000/svg">
<path d="M14.1013 2.32644C12.6074 0.824899 10.6154 0 8.49428 0C4.12651 0 0.568425 3.55809 0.564623 7.92587C0.564623 9.32478 0.929555 10.6857 1.6214 11.8907L0.5 16L4.70432 14.8976C5.86373 15.5286 7.1676 15.8632 8.49428 15.8632H8.49808C12.8659 15.8632 16.4239 12.3051 16.4277 7.93348C16.4239 5.81611 15.599 3.82419 14.1013 2.32644ZM8.49428 14.5213C7.30826 14.5213 6.14884 14.2019 5.13767 13.6013L4.89819 13.4569L2.40449 14.1107L3.06973 11.6778L2.91387 11.4269C2.25243 10.3778 1.90651 9.16512 1.90651 7.92207C1.90651 4.29556 4.86397 1.33809 8.49808 1.33809C10.2581 1.33809 11.9117 2.02613 13.1586 3.26919C14.4016 4.51604 15.0859 6.16964 15.0859 7.92968C15.0821 11.5676 12.1246 14.5213 8.49428 14.5213ZM12.1094 9.58708C11.9117 9.48824 10.9386 9.00927 10.7561 8.94084C10.5736 8.87622 10.4406 8.84201 10.3113 9.03968C10.1783 9.23735 9.79815 9.68591 9.68411 9.81516C9.57007 9.94821 9.45223 9.96341 9.25456 9.86458C9.05689 9.76574 8.41825 9.55667 7.66178 8.88002C7.07257 8.35543 6.67723 7.70539 6.55938 7.50772C6.44534 7.31005 6.54798 7.20361 6.64682 7.10478C6.73425 7.01734 6.84449 6.87289 6.94332 6.75885C7.04216 6.64481 7.07637 6.56118 7.14099 6.42813C7.20562 6.29508 7.17521 6.18104 7.12579 6.08221C7.07637 5.98337 6.68103 5.00642 6.51377 4.61107C6.35411 4.22333 6.19065 4.27655 6.06901 4.27275C5.95497 4.26515 5.82192 4.26515 5.68887 4.26515C5.55582 4.26515 5.34295 4.31456 5.16048 4.51224C4.97801 4.70991 4.46863 5.18888 4.46863 6.16584C4.46863 7.14279 5.17949 8.08173 5.27832 8.21478C5.37716 8.34783 6.67343 10.3474 8.66154 11.2065C9.13291 11.4117 9.50165 11.5334 9.79055 11.6246C10.2657 11.7767 10.6953 11.7539 11.0374 11.7044C11.4175 11.6474 12.2082 11.2255 12.3755 10.7617C12.5389 10.2979 12.5389 9.90259 12.4895 9.81896C12.4401 9.73533 12.3071 9.68591 12.1094 9.58708Z" fill="currentColor"/>
</svg>
