<svg width="132" height="38" viewBox="0 0 132 38" fill="none" xmlns="http://www.w3.org/2000/svg">
<path d="M15.3773 38.0006C11.3007 37.995 7.39266 36.3444 4.51007 33.4109C1.62748 30.4773 0.00558057 26.5002 0 22.3516H4.39592C4.39592 25.316 5.55311 28.1591 7.61291 30.2553C9.67271 32.3515 12.4664 33.5292 15.3794 33.5292C18.2924 33.5292 21.0861 32.3515 23.1459 30.2553C25.2057 28.1591 26.3629 25.316 26.3629 22.3516H30.7546C30.749 26.5002 29.1271 30.4773 26.2445 33.4109C23.3619 36.3444 19.4539 37.995 15.3773 38.0006Z" fill="#FF0000"/>
<path d="M30.7335 16.7658H26.3376V6.48764L16.6092 13.3097C16.2435 13.5654 15.8104 13.7022 15.3667 13.7022C14.9231 13.7022 14.4899 13.5654 14.1243 13.3097L4.39592 6.48335V16.7658H1.28542e-06V2.23728C-0.000431921 1.82957 0.108641 1.42949 0.31543 1.0803C0.522219 0.731099 0.818859 0.44606 1.17329 0.25599C1.52771 0.0659192 1.92645 -0.0219536 2.32639 0.00186924C2.72633 0.0256921 3.11227 0.160305 3.44249 0.391157L15.3646 8.72875L27.291 0.391157C27.6212 0.160305 28.0072 0.0256921 28.4071 0.00186924C28.807 -0.0219536 29.2058 0.0659192 29.5602 0.25599C29.9146 0.44606 30.2113 0.731099 30.4181 1.0803C30.6248 1.42949 30.7339 1.82957 30.7335 2.23728V16.7658Z" fill="#FF0000"/>
<path d="M44.5713 7.41054H46.1322L49.136 11.5922L52.0005 7.40625H53.4602V16.3664H51.9245V9.8749L49.1486 13.8548H48.9377L46.1364 9.91354V16.3535H44.5882L44.5713 7.41054Z" fill="#3E3E40"/>
<path d="M60.4418 7.27322C63.0575 7.27322 65.0318 9.10216 65.0318 11.8885C65.0466 12.5037 64.9376 13.1154 64.7115 13.686C64.4854 14.2567 64.147 14.7743 63.7171 15.207C63.2871 15.6397 62.7748 15.9783 62.2116 16.202C61.6483 16.4258 61.0461 16.53 60.4418 16.5081C57.8262 16.5081 55.8687 14.6792 55.8687 11.8885C55.8528 11.2747 55.9605 10.6641 56.1852 10.0943C56.4099 9.52446 56.7468 9.00746 57.1752 8.57511C57.6036 8.14276 58.1144 7.80422 58.6762 7.58032C59.238 7.35642 59.8389 7.25191 60.4418 7.27322ZM60.4418 15.0355C62.2896 15.0355 63.395 13.6531 63.395 11.8885C63.4138 11.4821 63.3514 11.076 63.2114 10.6949C63.0715 10.3137 62.8569 9.9655 62.5808 9.67125C62.3047 9.377 61.9727 9.14287 61.6051 8.98306C61.2374 8.82324 60.8416 8.74107 60.4418 8.74153C58.7543 8.74153 57.4887 10.0295 57.4887 11.8885C57.4711 12.2942 57.5344 12.6994 57.6748 13.0795C57.8153 13.4596 58.03 13.8068 58.306 14.1002C58.582 14.3935 58.9136 14.6268 59.2807 14.7861C59.6478 14.9454 60.0428 15.0273 60.4418 15.0269V15.0355Z" fill="#3E3E40"/>
<path d="M71.7169 16.5083C68.87 16.5083 66.7949 14.791 66.7949 11.8887C66.7949 9.26553 68.6549 7.27344 71.544 7.27344V8.74175C71.1323 8.72438 70.7214 8.7937 70.3373 8.94537C69.9531 9.09703 69.6038 9.32778 69.3112 9.62317C69.0186 9.91857 68.7891 10.2722 68.637 10.6621C68.4849 11.0519 68.4134 11.4695 68.4271 11.8887C68.4271 13.898 69.9244 15.0357 71.7169 15.0357V16.5083Z" fill="#3E3E40"/>
<path d="M74.1904 7.41113H75.7345V12.1939L79.2023 7.41113H81.0627L78.3628 11.1635L81.2906 16.3584H79.3921L77.2532 12.533L75.7345 14.5037V16.3584H74.1904V7.41113Z" fill="#3E3E40"/>
<path d="M86.9822 7.27337C89.5936 7.27337 91.568 9.10231 91.568 11.8887C91.5827 12.5034 91.4738 13.1148 91.2479 13.6851C91.0221 14.2555 90.6841 14.7729 90.2546 15.2055C89.8252 15.6381 89.3134 15.9769 88.7506 16.2009C88.1879 16.4249 87.5861 16.5295 86.9822 16.5083C84.3666 16.5083 82.4049 14.6793 82.4049 11.8887C82.3889 11.2745 82.4967 10.6635 82.7217 10.0934C82.9466 9.52327 83.2839 9.00606 83.7128 8.57365C84.1416 8.14124 84.653 7.80279 85.2152 7.57916C85.7775 7.35553 86.3789 7.25146 86.9822 7.27337ZM86.9822 15.0357C88.83 15.0357 89.9353 13.6532 89.9353 11.8887C89.9541 11.4822 89.8917 11.0762 89.7518 10.695C89.6118 10.3139 89.3973 9.96565 89.1212 9.6714C88.845 9.37715 88.5131 9.14302 88.1454 8.98321C87.7777 8.8234 87.382 8.74122 86.9822 8.74168C85.2947 8.74168 84.0291 10.0297 84.0291 11.8887C84.0144 12.2936 84.0797 12.6975 84.2213 13.0763C84.3629 13.4551 84.5777 13.8011 84.8531 14.0938C85.1285 14.3864 85.4589 14.6199 85.8246 14.7802C86.1903 14.9405 86.584 15.0245 86.9822 15.0271V15.0357Z" fill="#3E3E40"/>
<path d="M93.9766 7.41113H95.2967C97.4435 7.41113 98.4009 8.38571 98.4009 9.678C98.399 10.094 98.2784 10.5006 98.0538 10.8481C97.8292 11.1957 97.5102 11.4693 97.1356 11.6357C97.5656 11.7809 97.9373 12.0649 98.1946 12.4445C98.4518 12.8241 98.5805 13.2787 98.5611 13.7395C98.5611 15.5169 97.3844 16.3755 95.1195 16.3755H93.9766V7.41113ZM95.5244 8.88373V11.1635H95.6467C95.8027 11.1722 95.9587 11.1486 96.1055 11.0942C96.2522 11.0398 96.3866 10.9557 96.5005 10.847C96.6145 10.7382 96.7055 10.6071 96.7683 10.4615C96.8311 10.316 96.8642 10.159 96.8656 9.99999C96.8656 9.28301 96.3511 8.90091 95.6004 8.90091L95.5244 8.88373ZM95.5244 12.5159V14.8815H95.6214C96.427 14.8815 97.0175 14.4092 97.0175 13.6407C97.0175 12.8722 96.427 12.503 95.71 12.503L95.5244 12.5159Z" fill="#3E3E40"/>
<path d="M105.5 16.5083C102.645 16.5083 100.574 14.791 100.574 11.8887C100.574 9.26553 102.434 7.27344 105.323 7.27344V8.74175C104.912 8.72438 104.501 8.7937 104.117 8.94537C103.732 9.09703 103.383 9.32778 103.091 9.62317C102.798 9.91857 102.568 10.2722 102.416 10.6621C102.264 11.0519 102.193 11.4695 102.206 11.8887C102.206 13.898 103.704 15.0357 105.5 15.0357V16.5083Z" fill="#3E3E40"/>
<path d="M108 7.41016H109.544V12.1929L113.012 7.41016H114.872L112.147 11.1625L115.079 16.3574H113.176L111.042 12.5321L109.523 14.5027V16.3574H108V7.41016Z" fill="#3E3E40"/>
<path d="M117.15 16.366V7.41016H118.694V13.7814L123.306 7.41016H124.664V16.366H123.12V10.0076L118.505 16.366H117.15Z" fill="#3E3E40"/>
<path d="M127.727 7.41113H131.91V8.88373H129.274V11.112H131.497V12.5803H129.274V14.8944H131.999V16.367H127.727V7.41113Z" fill="#3E3E40"/>
<path d="M48.5154 20.6689C51.1268 20.6689 53.1012 22.4978 53.1012 25.2842C53.1159 25.8989 53.007 26.5103 52.7811 27.0807C52.5553 27.651 52.2173 28.1684 51.7878 28.601C51.3584 29.0336 50.8466 29.3724 50.2838 29.5964C49.7211 29.8204 49.1193 29.925 48.5154 29.9038C45.8998 29.9038 43.9381 28.0748 43.9381 25.2842C43.9221 24.67 44.03 24.059 44.2549 23.4889C44.4798 22.9188 44.8171 22.4016 45.246 21.9692C45.6748 21.5367 46.1862 21.1983 46.7484 20.9747C47.3107 20.751 47.9121 20.647 48.5154 20.6689ZM48.5154 28.4312C50.3632 28.4312 51.4685 27.0487 51.4685 25.2842C51.4874 24.8778 51.4249 24.4717 51.285 24.0905C51.145 23.7094 50.9305 23.3612 50.6544 23.0669C50.3782 22.7727 50.0463 22.5385 49.6786 22.3787C49.3109 22.2189 48.9152 22.1367 48.5154 22.1372C46.8279 22.1372 45.5623 23.4252 45.5623 25.2842C45.5434 25.6906 45.6059 26.0967 45.7458 26.4778C45.8858 26.8589 46.1003 27.2072 46.3764 27.5014C46.6525 27.7957 46.9845 28.0298 47.3522 28.1896C47.7198 28.3494 48.1156 28.4316 48.5154 28.4312Z" fill="#3E3E40"/>
<path d="M55.4893 20.8057H57.0375V25.5927L60.5053 20.8057H62.3658L59.6616 24.5666L62.6147 29.7615H60.7163L58.5774 25.9362L57.0375 27.9068V29.7615H55.4893V20.8057Z" fill="#3E3E40"/>
<path d="M70.2338 25.9362H66.2091V29.7615H64.665V20.8057H66.2091V24.4721H70.2338V20.8057H71.7652V29.7615H70.2338V25.9362Z" fill="#3E3E40"/>
<path d="M77.4182 20.7803H78.7766L82.4975 29.7619H80.848L79.9326 27.4778H76.1737L75.254 29.7662H73.6973L77.4182 20.7803ZM76.7812 26.0009H79.3588L78.0932 22.8196L76.7812 26.0009Z" fill="#3E3E40"/>
</svg>
