<svg width="143" height="19" viewBox="0 0 143 19" fill="none" xmlns="http://www.w3.org/2000/svg">
<path d="M5.48787 2.46289C4.05143 3.20676 2.58934 3.97628 1.38375 5.23317C0.255121 6.38745 -0.0526873 8.36256 0.639882 9.8503C1.33245 11.2867 2.30718 12.5693 3.46146 13.8005C2.66629 9.77335 3.51276 5.69488 5.48787 2.46289Z" fill="#37A58C"/>
<path d="M4.30762 14.5447C5.71841 15.4425 7.10355 16.2889 8.71954 16.6737C10.4894 17.0841 12.1567 16.3402 13.2084 14.9294C14.0805 13.57 14.6449 12.1335 15.1322 10.6201C12.0541 13.2108 8.46303 14.5703 4.30762 14.5447Z" fill="#DD0060"/>
<path d="M14.8503 3.66859C14.1834 2.38606 12.8239 1.56523 11.4387 1.43698C9.77145 1.36003 8.20675 1.56523 6.69336 1.92434C10.2075 3.05298 13.696 5.97716 15.4916 9.3374C15.5685 7.38795 15.6711 5.31024 14.8503 3.66859Z" fill="#3E3E40"/>
<path d="M45.5542 1.21387V7.47264H43.7587V1.21387H39.6289C39.6289 1.21387 39.6289 16.1682 39.6289 16.3734C39.8341 16.3734 43.7587 16.3734 43.7587 16.3734V10.089H45.5286V16.3734C45.5286 16.3734 49.4531 16.3734 49.6583 16.3734C49.6583 16.1682 49.6583 1.21387 49.6583 1.21387H45.5542Z" fill="#3E3E40"/>
<path d="M53.6591 1.21387C52.3509 1.21387 51.4531 2.3425 51.4531 3.70199V16.3734H55.5572C55.5572 16.1682 55.5572 10.089 55.5572 10.089H57.2245V16.3734H61.303V1.21387C61.3287 1.21387 54.1208 1.21387 53.6591 1.21387ZM57.2245 7.47264H55.5572C55.5572 7.47264 55.5572 4.49716 55.5572 4.39456C55.5572 3.83024 55.7624 3.62504 56.2755 3.62504C56.3268 3.62504 57.2245 3.62504 57.2245 3.62504V7.47264Z" fill="#3E3E40"/>
<path d="M27.0596 8.70388C28.0087 8.60128 29.1117 7.6009 29.1117 6.26706C29.1117 5.57449 29.1117 3.70199 29.1117 3.70199C29.086 2.31685 28.06 1.21387 26.9827 1.21387C26.2388 1.21387 19.1592 1.21387 19.1592 1.21387V16.3734H23.2376V10.089C23.2376 10.089 24.238 10.089 24.2637 10.089C24.751 10.089 24.9819 10.3199 24.9819 10.8842V16.3991H29.1117C29.1117 16.3478 29.1117 11.6281 29.1117 11.192C29.1117 9.83251 28.0343 8.80648 27.0596 8.70388ZM24.9819 6.70312C25.0075 7.16484 24.8023 7.42134 24.4689 7.47265H23.2633V3.62504C23.2633 3.62504 24.1867 3.62504 24.2893 3.62504C24.8023 3.62504 25.0075 3.88154 25.0075 4.39456L24.9819 6.70312Z" fill="#3E3E40"/>
<path d="M35.037 4.13805H37.8586V1.21387H30.9072C30.9072 1.21387 30.9072 16.1682 30.9072 16.3734C31.1124 16.3734 37.8586 16.3734 37.8586 16.3734V13.4493H35.037V10.089H37.4225V7.47264H35.037V4.13805Z" fill="#3E3E40"/>
<path d="M72.7174 14.8598C72.9482 14.2955 72.9996 13.7312 72.9996 13.0386C72.9996 12.859 72.9996 1.23926 72.9996 1.23926H68.9724C68.9724 1.23926 68.9724 12.8334 68.9724 12.936C68.9724 13.2694 68.7672 13.7825 68.0746 13.7825C68.049 13.7825 68.049 13.7825 68.049 13.7825C67.3564 13.7825 67.1512 13.2438 67.1512 12.936C67.1512 12.8334 67.1512 1.23926 67.1512 1.23926H63.124C63.124 1.23926 63.124 12.8847 63.124 13.0386C63.124 13.7825 63.1753 14.3211 63.4062 14.8598C63.714 15.5524 64.4066 16.1167 65.1248 16.2962C65.4069 16.3732 65.7917 16.3732 66.2278 16.3732H69.9215C70.3575 16.3732 70.7166 16.3475 71.0244 16.2962C71.7427 16.091 72.4096 15.5267 72.7174 14.8598Z" fill="#3E3E40"/>
<path d="M81.75 8H83.28V2.7H85.81V8H87.34V1.41H81.75V8ZM88.1098 8H89.6798L90.2798 6.43H92.4198L93.0498 8H94.6898L91.9598 1.38H90.6998L88.1098 8ZM90.7098 5.21L91.0398 4.31C91.2098 3.86 91.2998 3.58 91.3498 3.36H91.3698C91.4198 3.57 91.4998 3.85 91.6498 4.3L91.9598 5.21H90.7098ZM95.4609 8H96.9909V5.84H97.1609C97.7409 5.84 98.2109 5.76 98.5909 5.62C99.6309 5.23 99.9609 4.38 99.9609 3.62C99.9609 2.68 99.5509 2.02 98.8109 1.68C98.4009 1.49 97.8909 1.41 97.3009 1.41H95.4609V8ZM96.9909 4.61V2.64H97.2209C97.5209 2.64 97.7509 2.68 97.9209 2.78C98.2309 2.96 98.3709 3.28 98.3709 3.62C98.3709 4.04 98.2209 4.35 97.9009 4.5C97.7309 4.58 97.5109 4.61 97.2509 4.61H96.9909ZM102.493 8H104.023V2.7H105.713L106.103 1.41H100.563V2.7H102.493V8ZM106.857 8H108.387V5.3H111.217V8H112.747V1.41H111.217V4H108.387V1.41H106.857V8ZM114.25 8H118.19V6.71H115.78V5.32H117.85V4.03H115.78V2.7H117.82L118.21 1.41H114.25V8ZM119.514 8H121.044V5.84H121.214C121.794 5.84 122.264 5.76 122.644 5.62C123.684 5.23 124.014 4.38 124.014 3.62C124.014 2.68 123.604 2.02 122.864 1.68C122.454 1.49 121.944 1.41 121.354 1.41H119.514V8ZM121.044 4.61V2.64H121.274C121.574 2.64 121.804 2.68 121.974 2.78C122.284 2.96 122.424 3.28 122.424 3.62C122.424 4.04 122.274 4.35 121.954 4.5C121.784 4.58 121.564 4.61 121.304 4.61H121.044ZM127.165 8H128.685V4.77C128.685 4.49 128.675 4.12 128.625 3.81H128.655C128.815 4.11 128.955 4.36 129.135 4.65L131.285 8H132.705V1.41H131.185V4.34C131.185 4.7 131.195 5.1 131.235 5.44H131.205C131.055 5.13 130.935 4.91 130.755 4.62L128.695 1.41H127.165V8ZM133.415 6.73H136.855V5.89H133.415V6.73ZM135.135 5.37C136.175 5.37 136.905 4.65 136.905 3.63C136.905 2.61 136.175 1.89 135.135 1.89C134.095 1.89 133.365 2.61 133.365 3.63C133.365 4.65 134.095 5.37 135.135 5.37ZM135.135 4.45C134.725 4.45 134.505 4.1 134.505 3.63C134.505 3.16 134.725 2.81 135.135 2.81C135.545 2.81 135.765 3.16 135.765 3.63C135.765 4.1 135.545 4.45 135.135 4.45ZM139.774 8H141.264V1.36H140.144L137.764 2.38L138.264 3.55L139.774 2.91V8ZM86.81 15.34C86.32 15.63 85.84 15.83 85.15 15.83C83.91 15.83 83.13 14.98 83.13 13.75C83.13 12.62 83.75 11.61 85.17 11.61C85.79 11.61 86.38 11.76 86.93 12.05V10.65C86.47 10.46 85.87 10.34 85.13 10.34C82.9 10.34 81.5 11.88 81.5 13.77C81.5 15.7 82.68 17.1 84.96 17.1C85.66 17.1 86.42 16.98 87.23 16.54L86.81 15.34ZM91.8928 17H93.3828V10.36H92.2628L89.8828 11.38L90.3828 12.55L91.8928 11.91V17ZM96.5701 17.1C98.6501 17.1 99.6901 15.79 99.6901 13.46C99.6901 11.24 98.5801 10.34 97.1101 10.34C95.7201 10.34 94.6801 11.25 94.6801 12.68C94.6801 14.09 95.6101 14.74 96.7301 14.74C97.2201 14.74 97.7001 14.62 98.0801 14.35H98.0901C97.9301 15.43 97.4401 15.89 96.5201 15.89C96.0701 15.89 95.6101 15.75 95.2301 15.54L94.8601 16.73C95.3701 16.98 95.9401 17.1 96.5701 17.1ZM97.0901 13.53C96.5601 13.53 96.2401 13.2 96.2401 12.56C96.2401 11.93 96.5701 11.55 97.0701 11.55C97.7101 11.55 98.1201 12.22 98.1301 13.09C97.8901 13.32 97.5101 13.53 97.0901 13.53ZM102.381 17.1C104.461 17.1 105.501 15.79 105.501 13.46C105.501 11.24 104.391 10.34 102.921 10.34C101.531 10.34 100.491 11.25 100.491 12.68C100.491 14.09 101.421 14.74 102.541 14.74C103.031 14.74 103.511 14.62 103.891 14.35H103.901C103.741 15.43 103.251 15.89 102.331 15.89C101.881 15.89 101.421 15.75 101.041 15.54L100.671 16.73C101.181 16.98 101.751 17.1 102.381 17.1ZM102.901 13.53C102.371 13.53 102.051 13.2 102.051 12.56C102.051 11.93 102.381 11.55 102.881 11.55C103.521 11.55 103.931 12.22 103.941 13.09C103.701 13.32 103.321 13.53 102.901 13.53ZM106.151 17H111.141V15.71H108.151C108.581 14.58 111.021 13.93 111.021 12.15C111.021 11.08 110.291 10.34 108.771 10.34C107.781 10.34 106.981 10.63 106.371 10.9L106.751 12.07C107.291 11.83 107.831 11.61 108.511 11.61C108.971 11.61 109.421 11.79 109.421 12.32C109.421 13.54 106.411 13.81 106.151 17ZM114.387 17H115.917V11.7H118.057L118.447 10.41H114.387V17ZM122.351 17.1C124.361 17.1 125.751 15.72 125.751 13.72C125.751 11.72 124.361 10.34 122.351 10.34C120.341 10.34 118.951 11.72 118.951 13.72C118.951 15.72 120.341 17.1 122.351 17.1ZM122.351 15.83C121.311 15.83 120.581 15.12 120.581 13.72C120.581 12.32 121.311 11.61 122.351 11.61C123.391 11.61 124.121 12.32 124.121 13.72C124.121 15.12 123.391 15.83 122.351 15.83ZM126.554 18.9H128.024V17H131.934V18.9H133.404V15.7H132.454V10.41H128.734C128.314 12.98 127.794 14.77 126.974 15.7H126.554V18.9ZM130.924 15.7H128.624V15.68C129.234 14.73 129.664 13.25 129.904 11.64H130.924V15.7ZM133.725 17H135.295L135.895 15.43H138.035L138.665 17H140.305L137.575 10.38H136.315L133.725 17ZM136.325 14.21L136.655 13.31C136.825 12.86 136.915 12.58 136.965 12.36H136.985C137.035 12.57 137.115 12.85 137.265 13.3L137.575 14.21H136.325Z" fill="#3E3E40"/>
</svg>
