<svg width="0" height="0" class="hidden">
  <symbol fill="none" xmlns="http://www.w3.org/2000/svg" viewBox="0 0 16 16" id="arrow-right">
    <path fill-rule="evenodd" clip-rule="evenodd" d="M1 8C1 7.72386 1.22386 7.5 1.5 7.5L13.2929 7.5L10.1464 4.35355C9.95118 4.15829 9.95118 3.84171 10.1464 3.64645C10.3417 3.45118 10.6583 3.45118 10.8536 3.64645L14.8536 7.64645C15.0488 7.84171 15.0488 8.15829 14.8536 8.35355L10.8536 12.3536C10.6583 12.5488 10.3417 12.5488 10.1464 12.3536C9.95118 12.1583 9.95118 11.8417 10.1464 11.6464L13.2929 8.5H1.5C1.22386 8.5 1 8.27614 1 8Z" fill="currentColor"></path>
  </symbol>
  <symbol fill="none" xmlns="http://www.w3.org/2000/svg" viewBox="0 0 16 16" id="briefcase">
    <path d="M6.5 1C5.67173 1 5 1.67117 5 2.49976V3H1.5C0.671573 3 0 3.67157 0 4.5V5.88414L7.61351 7.91441C7.86674 7.98194 8.13326 7.98194 8.38649 7.91441L16 5.88414V4.5C16 3.67157 15.3284 3 14.5 3H11V2.49976C11 1.67117 10.3283 1 9.5 1H6.5ZM6.5 2H9.5C9.7763 2 10 2.22463 10 2.50061V3H6V2.49976C6 2.22377 6.2237 2 6.5 2Z" fill="currentColor"></path>
    <path d="M0 12.5C0 13.3284 0.671573 14 1.5 14H14.5C15.3284 14 16 13.3284 16 12.5V6.84919L8.12883 8.94817C8.04442 8.97068 7.95558 8.97068 7.87117 8.94817L0 6.84919V12.5Z" fill="currentColor"></path>
  </symbol>
  <symbol fill="none" xmlns="http://www.w3.org/2000/svg" viewBox="0 0 16 16" id="building">
    <path fill-rule="evenodd" clip-rule="evenodd" d="M14.7629 0.0746751C14.9103 0.165778 15 0.326712 15 0.500001V15.5C15 15.7761 14.7761 16 14.5 16H11.5C11.2239 16 11 15.7761 11 15.5V14H10V15.5C10 15.7761 9.77614 16 9.5 16H0.5C0.223858 16 0 15.7761 0 15.5V10C0 9.78479 0.137715 9.59372 0.341886 9.52566L6 7.63962V4.5C6 4.31061 6.107 4.13748 6.27639 4.05279L14.2764 0.0527869C14.4314 -0.0247102 14.6155 -0.0164282 14.7629 0.0746751ZM6 8.69371L1 10.3604V15H6V8.69371ZM7 15H9V13.5C9 13.2239 9.22386 13 9.5 13H11.5C11.7761 13 12 13.2239 12 13.5V15H14V1.30902L7 4.80902V15Z" fill="currentColor"></path>
    <path d="M2 11H3V12H2V11Z" fill="currentColor"></path>
    <path d="M4 11H5V12H4V11Z" fill="currentColor"></path>
    <path d="M2 13H3V14H2V13Z" fill="currentColor"></path>
    <path d="M4 13H5V14H4V13Z" fill="currentColor"></path>
    <path d="M8 9H9V10H8V9Z" fill="currentColor"></path>
    <path d="M10 9H11V10H10V9Z" fill="currentColor"></path>
    <path d="M8 11H9V12H8V11Z" fill="currentColor"></path>
    <path d="M10 11H11V12H10V11Z" fill="currentColor"></path>
    <path d="M12 9H13V10H12V9Z" fill="currentColor"></path>
    <path d="M12 11H13V12H12V11Z" fill="currentColor"></path>
    <path d="M8 7H9V8H8V7Z" fill="currentColor"></path>
    <path d="M10 7H11V8H10V7Z" fill="currentColor"></path>
    <path d="M12 7H13V8H12V7Z" fill="currentColor"></path>
    <path d="M8 5H9V6H8V5Z" fill="currentColor"></path>
    <path d="M10 5H11V6H10V5Z" fill="currentColor"></path>
    <path d="M12 5H13V6H12V5Z" fill="currentColor"></path>
    <path d="M12 3H13V4H12V3Z" fill="currentColor"></path>
  </symbol>
  <symbol fill="none" xmlns="http://www.w3.org/2000/svg" viewBox="0 0 12 12" id="close">
    <path d="M2.14017 10.3902C1.99372 10.5366 1.75628 10.5366 1.60983 10.3902C1.46339 10.2437 1.46339 10.0063 1.60983 9.85983L5.46967 6L1.60983 2.14016C1.46339 1.99372 1.46339 1.75628 1.60983 1.60983C1.75628 1.46339 1.99372 1.46339 2.14016 1.60983L6 5.46967L9.85983 1.60983C10.0063 1.46339 10.2437 1.46339 10.3902 1.60983C10.5366 1.75628 10.5366 1.99372 10.3902 2.14016L6.53033 6L10.3902 9.85983C10.5366 10.0063 10.5366 10.2437 10.3902 10.3902C10.2437 10.5366 10.0063 10.5366 9.85984 10.3902L6 6.53033L2.14017 10.3902Z" fill="currentColor"></path>
  </symbol>
  <symbol fill="none" xmlns="http://www.w3.org/2000/svg" viewBox="0 0 16 16" id="headphones">
    <path d="M8 1.33333C4.3181 1.33333 1.33333 4.3181 1.33333 8V9.33333H2.66667C3.40305 9.33333 4 9.93029 4 10.6667V14.6667C4 15.403 3.40305 16 2.66667 16H1.33333C0.596954 16 0 15.403 0 14.6667V8C0 3.58172 3.58172 0 8 0C12.4183 0 16 3.58172 16 8V14.6667C16 15.403 15.403 16 14.6667 16H13.3333C12.597 16 12 15.403 12 14.6667V10.6667C12 9.93029 12.597 9.33333 13.3333 9.33333H14.6667V8C14.6667 4.3181 11.6819 1.33333 8 1.33333Z" fill="currentColor"></path>
  </symbol>
  <symbol fill="none" xmlns="http://www.w3.org/2000/svg" viewBox="0 0 16 16" id="house">
    <path fill-rule="evenodd" clip-rule="evenodd" d="M8 3.29282L14 9.29282V13.4999C14 14.3284 13.3284 14.9999 12.5 14.9999H3.5C2.67157 14.9999 2 14.3284 2 13.4999V9.29282L8 3.29282Z" fill="currentColor"></path>
    <path fill-rule="evenodd" clip-rule="evenodd" d="M13 2.49992V5.99992L11 3.99992V2.49992C11 2.22378 11.2239 1.99992 11.5 1.99992H12.5C12.7761 1.99992 13 2.22378 13 2.49992Z" fill="currentColor"></path>
    <path fill-rule="evenodd" clip-rule="evenodd" d="M7.29289 1.49992C7.68342 1.1094 8.31658 1.1094 8.70711 1.49992L15.3536 8.14637C15.5488 8.34163 15.5488 8.65822 15.3536 8.85348C15.1583 9.04874 14.8417 9.04874 14.6464 8.85348L8 2.20703L1.35355 8.85348C1.15829 9.04874 0.841709 9.04874 0.646447 8.85348C0.451184 8.65822 0.451184 8.34163 0.646447 8.14637L7.29289 1.49992Z" fill="currentColor"></path>
  </symbol>
  <symbol fill="none" xmlns="http://www.w3.org/2000/svg" viewBox="0 0 12 12" id="list-ul">
    <path fill-rule="evenodd" clip-rule="evenodd" d="M3.75 8.625C3.75 8.41789 3.91789 8.25 4.125 8.25H10.875C11.0821 8.25 11.25 8.41789 11.25 8.625C11.25 8.83211 11.0821 9 10.875 9H4.125C3.91789 9 3.75 8.83211 3.75 8.625Z" fill="currentColor"></path>
    <path fill-rule="evenodd" clip-rule="evenodd" d="M3.75 5.625C3.75 5.41789 3.91789 5.25 4.125 5.25H10.875C11.0821 5.25 11.25 5.41789 11.25 5.625C11.25 5.83211 11.0821 6 10.875 6H4.125C3.91789 6 3.75 5.83211 3.75 5.625Z" fill="currentColor"></path>
    <path fill-rule="evenodd" clip-rule="evenodd" d="M3.75 2.625C3.75 2.41789 3.91789 2.25 4.125 2.25H10.875C11.0821 2.25 11.25 2.41789 11.25 2.625C11.25 2.83211 11.0821 3 10.875 3H4.125C3.91789 3 3.75 2.83211 3.75 2.625Z" fill="currentColor"></path>
    <path fill-rule="evenodd" clip-rule="evenodd" d="M1.5 3.375C1.91421 3.375 2.25 3.03921 2.25 2.625C2.25 2.21079 1.91421 1.875 1.5 1.875C1.08579 1.875 0.75 2.21079 0.75 2.625C0.75 3.03921 1.08579 3.375 1.5 3.375Z" fill="currentColor"></path>
    <path fill-rule="evenodd" clip-rule="evenodd" d="M1.5 6.375C1.91421 6.375 2.25 6.03921 2.25 5.625C2.25 5.21079 1.91421 4.875 1.5 4.875C1.08579 4.875 0.75 5.21079 0.75 5.625C0.75 6.03921 1.08579 6.375 1.5 6.375Z" fill="currentColor"></path>
    <path fill-rule="evenodd" clip-rule="evenodd" d="M1.5 9.375C1.91421 9.375 2.25 9.03921 2.25 8.625C2.25 8.21079 1.91421 7.875 1.5 7.875C1.08579 7.875 0.75 8.21079 0.75 8.625C0.75 9.03921 1.08579 9.375 1.5 9.375Z" fill="currentColor"></path>
  </symbol>
  <symbol fill="none" xmlns="http://www.w3.org/2000/svg" viewBox="0 0 16 16" id="location">
    <path d="M14.0815 2.18207C14.2278 2.32836 14.2689 2.54963 14.1848 2.73869L8.52798 15.4666C8.44724 15.6483 8.26654 15.7649 8.06774 15.7635C7.86894 15.7622 7.68981 15.6432 7.6115 15.4605L5.56896 10.6946L0.803045 8.65205C0.620315 8.57374 0.501341 8.39461 0.500016 8.19581C0.49869 7.99701 0.615267 7.81631 0.796935 7.73557L13.5249 2.07871C13.7139 1.99469 13.9352 2.03578 14.0815 2.18207Z" fill="currentColor"></path>
  </symbol>
  <symbol fill="none" xmlns="http://www.w3.org/2000/svg" viewBox="0 0 16 16" id="payment">
    <path d="M0 4C0 2.89543 0.895431 2 2 2H14C15.1046 2 16 2.89543 16 4V5H0V4Z" fill="currentColor"></path>
    <path d="M0 7V12C0 13.1046 0.895431 14 2 14H14C15.1046 14 16 13.1046 16 12V7H0ZM3 9H4C4.55228 9 5 9.44772 5 10V11C5 11.5523 4.55228 12 4 12H3C2.44772 12 2 11.5523 2 11V10C2 9.44772 2.44772 9 3 9Z" fill="currentColor"></path>
  </symbol>
  <symbol fill="none" xmlns="http://www.w3.org/2000/svg" viewBox="0 0 17 16" id="phone-arrow">
    <rect width="16" height="16" transform="translate(0.333984)" fill="white"></rect>
    <path fill-rule="evenodd" clip-rule="evenodd" d="M2.21876 0.511076C2.96087 -0.231039 4.18548 -0.154797 4.82981 0.673634L6.62352 2.97983C6.95268 3.40304 7.069 3.95409 6.93897 4.47423L6.3917 6.66329C6.33392 6.8944 6.40164 7.13888 6.57009 7.30732L9.02666 9.7639C9.19511 9.93235 9.43959 10.0001 9.67069 9.94229L11.8598 9.39502C12.3799 9.26499 12.9309 9.3813 13.3542 9.71047L15.6603 11.5042C16.4888 12.1485 16.565 13.3731 15.8229 14.1152L14.789 15.1492C14.0493 15.8889 12.9429 16.2137 11.9117 15.8512C9.35153 14.9511 6.94837 13.4774 4.90247 11.4315C2.85658 9.38562 1.38293 6.98246 0.482822 4.42225C0.120302 3.39112 0.445114 2.28472 1.18483 1.545L2.21876 0.511076Z" fill="currentColor"></path>
    <path fill-rule="evenodd" clip-rule="evenodd" d="M11.334 0.5C11.334 0.223858 11.5578 0 11.834 0H15.834C16.1101 0 16.334 0.223858 16.334 0.5V4.5C16.334 4.77614 16.1101 5 15.834 5C15.5578 5 15.334 4.77614 15.334 4.5V1.70711L11.1875 5.85355C10.9923 6.04882 10.6757 6.04882 10.4804 5.85355C10.2852 5.65829 10.2852 5.34171 10.4804 5.14645L14.6269 1H11.834C11.5578 1 11.334 0.776142 11.334 0.5Z" fill="currentColor"></path>
  </symbol>
  <symbol fill="none" xmlns="http://www.w3.org/2000/svg" viewBox="0 0 20 20" id="safety">
    <path d="M9.92913 2.125C11.2452 2.125 12.3121 3.13236 12.3121 4.375V8.875H7.54615V4.375C7.54615 3.13236 8.61304 2.125 9.92913 2.125ZM13.5036 8.875V4.375C13.5036 2.51104 11.9032 1 9.92913 1C7.955 1 6.35466 2.51104 6.35466 4.375V8.875C5.03858 8.875 3.97168 9.88236 3.97168 11.125V16.75C3.97168 17.9926 5.03858 19 6.35466 19H13.5036C14.8197 19 15.8866 17.9926 15.8866 16.75V11.125C15.8866 9.88236 14.8197 8.875 13.5036 8.875Z" fill="currentColor"></path>
  </symbol>
  <symbol fill="none" xmlns="http://www.w3.org/2000/svg" viewBox="0 0 16 16" id="search">
    <path d="M11.7422 10.3439C12.5329 9.2673 13 7.9382 13 6.5C13 2.91015 10.0899 0 6.5 0C2.91015 0 0 2.91015 0 6.5C0 10.0899 2.91015 13 6.5 13C7.93858 13 9.26801 12.5327 10.3448 11.7415L10.3439 11.7422C10.3734 11.7822 10.4062 11.8204 10.4424 11.8566L14.2929 15.7071C14.6834 16.0976 15.3166 16.0976 15.7071 15.7071C16.0976 15.3166 16.0976 14.6834 15.7071 14.2929L11.8566 10.4424C11.8204 10.4062 11.7822 10.3734 11.7422 10.3439ZM12 6.5C12 9.53757 9.53757 12 6.5 12C3.46243 12 1 9.53757 1 6.5C1 3.46243 3.46243 1 6.5 1C9.53757 1 12 3.46243 12 6.5Z" fill="currentColor"></path>
  </symbol>
  <symbol fill="none" xmlns="http://www.w3.org/2000/svg" viewBox="0 0 16 16" id="slider-right">
    <path fill-rule="evenodd" clip-rule="evenodd" d="M4.64645 1.64645C4.84171 1.45118 5.15829 1.45118 5.35355 1.64645L11.3536 7.64645C11.5488 7.84171 11.5488 8.15829 11.3536 8.35355L5.35355 14.3536C5.15829 14.5488 4.84171 14.5488 4.64645 14.3536C4.45118 14.1583 4.45118 13.8417 4.64645 13.6464L10.2929 8L4.64645 2.35355C4.45118 2.15829 4.45118 1.84171 4.64645 1.64645Z" fill="currentColor"></path>
  </symbol>
  <symbol fill="none" xmlns="http://www.w3.org/2000/svg" viewBox="0 0 16 16" id="telephone">
    <path fill-rule="evenodd" clip-rule="evenodd" d="M1.88477 0.511076C2.62689 -0.231039 3.85149 -0.154797 4.49583 0.673634L6.28954 2.97983C6.6187 3.40304 6.73502 3.95409 6.60498 4.47423L6.05772 6.66329C5.99994 6.8944 6.06766 7.13888 6.2361 7.30732L8.69268 9.7639C8.86113 9.93235 9.1056 10.0001 9.33671 9.94229L11.5258 9.39502C12.0459 9.26499 12.597 9.3813 13.0202 9.71047L15.3264 11.5042C16.1548 12.1485 16.231 13.3731 15.4889 14.1152L14.455 15.1492C13.7153 15.8889 12.6089 16.2137 11.5778 15.8512C9.01754 14.9511 6.61438 13.4774 4.56849 11.4315C2.5226 9.38562 1.04895 6.98246 0.148838 4.42225C-0.213682 3.39112 0.11113 2.28472 0.85085 1.545L1.88477 0.511076Z" fill="currentColor"></path>
  </symbol>
  <symbol fill="none" xmlns="http://www.w3.org/2000/svg" viewBox="0 0 16 16" id="telephone-line">
    <path d="M3.65387 1.32849C3.40343 1.00649 2.92745 0.976861 2.639 1.26531L1.60508 2.29923C1.1216 2.78271 0.94387 3.46766 1.1551 4.06847C2.00338 6.48124 3.39215 8.74671 5.32272 10.6773C7.25329 12.6078 9.51876 13.9966 11.9315 14.8449C12.5323 15.0561 13.2173 14.8784 13.7008 14.3949L14.7347 13.361C15.0231 13.0726 14.9935 12.5966 14.6715 12.3461L12.3653 10.5524C12.2008 10.4245 11.9866 10.3793 11.7845 10.4298L9.59541 10.9771C9.00082 11.1257 8.37183 10.9515 7.93845 10.5181L5.48187 8.06155C5.04849 7.62817 4.87427 6.99919 5.02292 6.40459L5.57019 4.21553C5.62073 4.01336 5.57552 3.79918 5.44758 3.63468L3.65387 1.32849ZM1.88477 0.511076C2.62689 -0.231039 3.8515 -0.154797 4.49583 0.673634L6.28954 2.97983C6.6187 3.40304 6.73502 3.95409 6.60498 4.47423L6.05772 6.66329C5.99994 6.8944 6.06766 7.13888 6.2361 7.30732L8.69268 9.7639C8.86113 9.93235 9.1056 10.0001 9.33671 9.94229L11.5258 9.39502C12.0459 9.26499 12.597 9.3813 13.0202 9.71047L15.3264 11.5042C16.1548 12.1485 16.231 13.3731 15.4889 14.1152L14.455 15.1492C13.7153 15.8889 12.6089 16.2137 11.5778 15.8512C9.01754 14.9511 6.61438 13.4774 4.56849 11.4315C2.5226 9.38562 1.04895 6.98246 0.148838 4.42225C-0.213682 3.39112 0.11113 2.28472 0.85085 1.545L1.88477 0.511076Z" fill="currentColor"></path>
  </symbol>
  <symbol fill="none" xmlns="http://www.w3.org/2000/svg" viewBox="0 0 16 19" id="temperature">
    <path d="M5.81257 14.8438C5.81257 15.8275 5.03186 16.625 4.0688 16.625C3.10574 16.625 2.32503 15.8275 2.32503 14.8438C2.32503 14.0682 2.81027 13.4084 3.48754 13.1639V11.2812C3.48754 10.9533 3.74778 10.6875 4.0688 10.6875C4.38982 10.6875 4.65006 10.9533 4.65006 11.2812V13.1639C5.32734 13.4084 5.81257 14.0682 5.81257 14.8438Z" fill="currentColor"></path>
    <path d="M1.16251 2.96875C1.16251 1.32915 2.4637 0 4.0688 0C5.6739 0 6.97509 1.32915 6.97509 2.96875V11.935C7.69357 12.684 8.1376 13.7113 8.1376 14.8438C8.1376 17.1392 6.31594 19 4.0688 19C1.82166 19 0 17.1392 0 14.8438C0 13.7113 0.444035 12.684 1.16251 11.935V2.96875ZM4.0688 1.1875C3.10574 1.1875 2.32503 1.98499 2.32503 2.96875V12.4538L2.13142 12.6308C1.53591 13.1752 1.16251 13.9646 1.16251 14.8438C1.16251 16.4833 2.4637 17.8125 4.0688 17.8125C5.6739 17.8125 6.97509 16.4833 6.97509 14.8438C6.97509 13.9646 6.60169 13.1752 6.00618 12.6308L5.81257 12.4538V2.96875C5.81257 1.98499 5.03186 1.1875 4.0688 1.1875Z" fill="currentColor"></path>
    <path d="M9.88137 2.375C10.2024 2.375 10.4626 2.64083 10.4626 2.96875V4.50406L11.2141 3.73641C11.4411 3.50453 11.8092 3.50453 12.0362 3.73641C12.2632 3.96828 12.2632 4.34422 12.0362 4.57609L10.4626 6.18344V8.47162L12.4026 7.32751L12.9785 5.13184C13.0616 4.81509 13.3804 4.62712 13.6904 4.71199C14.0005 4.79687 14.1845 5.12244 14.1014 5.43919L13.8264 6.48782L15.128 5.72017C15.406 5.55621 15.7615 5.65351 15.922 5.9375C16.0825 6.22148 15.9873 6.58461 15.7093 6.74857L14.4076 7.51623L15.4342 7.79721C15.7443 7.88208 15.9283 8.20766 15.8452 8.5244C15.7621 8.84115 15.4434 9.02912 15.1333 8.94425L12.9838 8.35592L11.0439 9.5L12.9838 10.6441L15.1333 10.0557C15.4434 9.97087 15.7621 10.1588 15.8452 10.4756C15.9283 10.7923 15.7443 11.1179 15.4342 11.2028L14.4076 11.4838L15.7092 12.2514C15.9873 12.4154 16.0825 12.7785 15.922 13.0625C15.7615 13.3465 15.406 13.4438 15.128 13.2798L13.8263 12.5122L14.1014 13.5608C14.1845 13.8776 14.0005 14.2031 13.6904 14.288C13.3803 14.3729 13.0616 14.1849 12.9785 13.8682L12.4026 11.6725L10.4626 10.5284V12.8166L12.0362 14.4239C12.2632 14.6558 12.2632 15.0317 12.0362 15.2636C11.8092 15.4955 11.4411 15.4955 11.2141 15.2636L10.4626 14.4959V16.0312C10.4626 16.3592 10.2024 16.625 9.88137 16.625C9.56035 16.625 9.30012 16.3592 9.30012 16.0312V2.96875C9.30012 2.64083 9.56035 2.375 9.88137 2.375Z" fill="currentColor"></path>
  </symbol>
  <symbol fill="none" xmlns="http://www.w3.org/2000/svg" viewBox="0 0 12 12" id="user">
    <path d="M1 12C1 12 0 12 0 11C0 10 1 7 6 7C11 7 12 10 12 11C12 12 11 12 11 12H1Z" fill="currentColor"></path>
    <path d="M6 6C7.65685 6 9 4.65685 9 3C9 1.34315 7.65685 0 6 0C4.34315 0 3 1.34315 3 3C3 4.65685 4.34315 6 6 6Z" fill="currentColor"></path>
  </symbol>
  <symbol fill="none" xmlns="http://www.w3.org/2000/svg" viewBox="0 0 17 16" id="whatsapp">
    <path d="M14.1013 2.32644C12.6074 0.824899 10.6154 0 8.49428 0C4.12651 0 0.568425 3.55809 0.564623 7.92587C0.564623 9.32478 0.929555 10.6857 1.6214 11.8907L0.5 16L4.70432 14.8976C5.86373 15.5286 7.1676 15.8632 8.49428 15.8632H8.49808C12.8659 15.8632 16.4239 12.3051 16.4277 7.93348C16.4239 5.81611 15.599 3.82419 14.1013 2.32644ZM8.49428 14.5213C7.30826 14.5213 6.14884 14.2019 5.13767 13.6013L4.89819 13.4569L2.40449 14.1107L3.06973 11.6778L2.91387 11.4269C2.25243 10.3778 1.90651 9.16512 1.90651 7.92207C1.90651 4.29556 4.86397 1.33809 8.49808 1.33809C10.2581 1.33809 11.9117 2.02613 13.1586 3.26919C14.4016 4.51604 15.0859 6.16964 15.0859 7.92968C15.0821 11.5676 12.1246 14.5213 8.49428 14.5213ZM12.1094 9.58708C11.9117 9.48824 10.9386 9.00927 10.7561 8.94084C10.5736 8.87622 10.4406 8.84201 10.3113 9.03968C10.1783 9.23735 9.79815 9.68591 9.68411 9.81516C9.57007 9.94821 9.45223 9.96341 9.25456 9.86458C9.05689 9.76574 8.41825 9.55667 7.66178 8.88002C7.07257 8.35543 6.67723 7.70539 6.55938 7.50772C6.44534 7.31005 6.54798 7.20361 6.64682 7.10478C6.73425 7.01734 6.84449 6.87289 6.94332 6.75885C7.04216 6.64481 7.07637 6.56118 7.14099 6.42813C7.20562 6.29508 7.17521 6.18104 7.12579 6.08221C7.07637 5.98337 6.68103 5.00642 6.51377 4.61107C6.35411 4.22333 6.19065 4.27655 6.06901 4.27275C5.95497 4.26515 5.82192 4.26515 5.68887 4.26515C5.55582 4.26515 5.34295 4.31456 5.16048 4.51224C4.97801 4.70991 4.46863 5.18888 4.46863 6.16584C4.46863 7.14279 5.17949 8.08173 5.27832 8.21478C5.37716 8.34783 6.67343 10.3474 8.66154 11.2065C9.13291 11.4117 9.50165 11.5334 9.79055 11.6246C10.2657 11.7767 10.6953 11.7539 11.0374 11.7044C11.4175 11.6474 12.2082 11.2255 12.3755 10.7617C12.5389 10.2979 12.5389 9.90259 12.4895 9.81896C12.4401 9.73533 12.3071 9.68591 12.1094 9.58708Z" fill="currentColor"></path>
  </symbol>
</svg>