<svg width="12" height="12" fill="none" xmlns="http://www.w3.org/2000/svg"><path fill-rule="evenodd" clip-rule="evenodd" d="M3.75 8.625c0-.207.168-.375.375-.375h6.75a.375.375 0 010 .75h-6.75a.375.375 0 01-.375-.375zm0-3c0-.207.168-.375.375-.375h6.75a.375.375 0 010 .75h-6.75a.375.375 0 01-.375-.375zm0-3c0-.207.168-.375.375-.375h6.75a.375.375 0 010 .75h-6.75a.375.375 0 01-.375-.375zm-2.25.75a.75.75 0 100-1.5.75.75 0 000 1.5zm0 3a.75.75 0 100-1.5.75.75 0 000 1.5zm0 3a.75.75 0 100-1.5.75.75 0 000 1.5z" fill="currentColor"/></svg>