<svg width="17" height="16" fill="none" xmlns="http://www.w3.org/2000/svg"><path fill="#fff" d="M.334 0h16v16h-16z"/><path fill-rule="evenodd" clip-rule="evenodd" d="M2.219.511a1.745 1.745 0 012.61.163L6.625 2.98c.329.423.445.974.315 1.494l-.547 2.19a.678.678 0 00.178.643l2.457 2.457a.678.678 0 00.644.178l2.189-.547a1.745 1.745 0 011.494.315l2.306 1.794c.829.645.905 1.87.163 2.611l-1.034 1.034c-.74.74-1.846 1.065-2.877.702a18.634 18.634 0 01-7.01-4.42 18.634 18.634 0 01-4.42-7.009c-.362-1.03-.037-2.137.703-2.877L2.219.511zM11.334.5a.5.5 0 01.5-.5h4a.5.5 0 01.5.5v4a.5.5 0 01-1 0V1.707l-4.146 4.147a.5.5 0 11-.708-.708L14.627 1h-2.793a.5.5 0 01-.5-.5z" fill="currentColor"/></svg>