<svg width="16" height="19" fill="none" xmlns="http://www.w3.org/2000/svg"><path d="M5.813 14.844c0 .984-.781 1.781-1.744 1.781s-1.744-.797-1.744-1.781a1.78 1.78 0 011.163-1.68V11.28c0-.328.26-.594.58-.594.322 0 .582.266.582.594v1.883a1.78 1.78 0 011.163 1.68z" fill="currentColor"/><path d="M1.163 2.969C1.163 1.329 2.463 0 4.069 0c1.605 0 2.906 1.33 2.906 2.969v8.966a4.19 4.19 0 011.163 2.909c0 2.295-1.822 4.156-4.07 4.156C1.823 19 0 17.14 0 14.844a4.19 4.19 0 011.163-2.909V2.969zm2.906-1.781c-.963 0-1.744.797-1.744 1.78v9.486l-.194.177a2.988 2.988 0 00-.968 2.213c0 1.64 1.3 2.969 2.906 2.969 1.605 0 2.906-1.33 2.906-2.97 0-.878-.373-1.668-.969-2.212l-.193-.177V2.969c0-.984-.781-1.781-1.744-1.781zm5.812 1.187c.321 0 .582.266.582.594v1.535l.751-.768a.573.573 0 01.822 0 .603.603 0 010 .84l-1.573 1.607v2.289l1.94-1.144.575-2.196a.58.58 0 01.712-.42c.31.085.495.41.411.727l-.275 1.049 1.302-.768a.575.575 0 01.794.218.6.6 0 01-.213.81l-1.301.768 1.026.281c.31.085.494.41.411.727a.58.58 0 01-.712.42l-2.15-.588-1.94 1.144 1.94 1.144 2.15-.588a.58.58 0 01.712.42.595.595 0 01-.41.727l-1.027.28 1.301.768a.6.6 0 01.213.812.575.575 0 01-.794.217l-1.302-.768.275 1.049a.595.595 0 01-.41.727.58.58 0 01-.713-.42l-.575-2.196-1.94-1.144v2.289l1.573 1.607a.603.603 0 010 .84.573.573 0 01-.822 0l-.751-.768v1.535c0 .328-.26.594-.582.594a.588.588 0 01-.58-.594V2.97c0-.328.26-.594.58-.594z" fill="currentColor"/></svg>